<?xml version="1.0" encoding="utf-8"?>
<!-- Generator: Adobe Illustrator 17.0.0, SVG Export Plug-In . SVG Version: 6.00 Build 0)  -->
<!DOCTYPE svg PUBLIC "-//W3C//DTD SVG 1.1//EN" "http://www.w3.org/Graphics/SVG/1.1/DTD/svg11.dtd">
<svg version="1.1" id="Layer_1" xmlns="http://www.w3.org/2000/svg" xmlns:xlink="http://www.w3.org/1999/xlink" x="0px" y="0px"
	 width="31px" height="30px" viewBox="0 0 31 30" enable-background="new 0 0 31 30" xml:space="preserve">
<g>
	<g>
		<path fill="#D1E5AA" d="M31,20c0,5.5-4.5,10-10,10H10C4.5,30,0,25.5,0,20V10C0,4.5,4.5,0,10,0h11c5.5,0,10,4.5,10,10V20z"/>
	</g>
	<path fill="#94C33B" d="M20.67,12H18V9.75C18,8.983,18.061,9,18.419,9C18.777,9,21,9,21,9V5.428l-3.45-0.013
		c-3.366,0-4.55,2.518-4.55,4.129V12h-1v3h1c0,5,0,10,0,10h5c0,0,0-5,0-10h2.314L20.67,12z"/>
</g>
</svg>
