<?xml version="1.0" encoding="utf-8"?>
<!-- Generator: Adobe Illustrator 17.0.0, SVG Export Plug-In . SVG Version: 6.00 Build 0)  -->
<!DOCTYPE svg PUBLIC "-//W3C//DTD SVG 1.1//EN" "http://www.w3.org/Graphics/SVG/1.1/DTD/svg11.dtd">
<svg version="1.1" id="Layer_1" xmlns="http://www.w3.org/2000/svg" xmlns:xlink="http://www.w3.org/1999/xlink" x="0px" y="0px"
	 width="31px" height="30px" viewBox="0 0 31 30" enable-background="new 0 0 31 30" xml:space="preserve">
<g>
	<g>
		<path fill="#D1E5AA" d="M31,20c0,5.5-4.5,10-10,10H10C4.5,30,0,25.5,0,20V10C0,4.5,4.5,0,10,0h11c5.5,0,10,4.5,10,10V20z"/>
	</g>
	<path fill="#94C33B" d="M25.463,9.603c-0.667,0.296-1.385,0.495-2.138,0.584c0.768-0.459,1.359-1.189,1.639-2.06
		c-0.72,0.428-1.518,0.737-2.366,0.903c-0.679-0.723-1.647-1.176-2.716-1.176c-2.057,0-3.723,1.667-3.723,3.723
		c0,0.294,0.032,0.578,0.097,0.851c-3.094-0.158-5.836-1.639-7.674-3.892c-0.32,0.552-0.502,1.19-0.502,1.87
		c0,1.293,0.633,2.433,1.63,3.1C9.1,13.486,9,13.32,8,13.042c0,0.016,0,0.03,0,0.046c0,1.804,1.308,3.306,3.01,3.651
		c-0.313,0.083-0.628,0.129-0.969,0.129c-0.239,0-0.466-0.022-0.693-0.066c0.471,1.479,1.851,2.557,3.478,2.585
		c-1.272,0.999-2.877,1.594-4.621,1.594c-0.299,0-0.593-0.018-0.886-0.052c1.649,1.056,3.604,1.674,5.706,1.674
		c6.848,0,10.591-5.674,10.591-10.593c0-0.161-0.002-0.323-0.009-0.481C24.333,11.005,24.964,10.347,25.463,9.603z"/>
</g>
</svg>
