<svg id="Layer_1" data-name="Layer 1" xmlns="http://www.w3.org/2000/svg" viewBox="0 0 266.2 78.78"><defs><style>.cls-1{fill:#9ea638;}.cls-2{fill:#007dc3;}.cls-3{fill:#8ab0dd;}.cls-4{fill:#9fa617;}</style></defs><title>Logo-DreamInn</title><path class="cls-1" d="M40.32,75.11c1.43.31,2.09.83,2.09,1.82s-.91,1.82-2.19,1.82a3.77,3.77,0,0,1-2.62-1L38,77.2a3.05,3.05,0,0,0,2.2.91c.86,0,1.43-.45,1.43-1.1s-.32-.94-1.67-1.23-2.15-.8-2.15-1.86A1.89,1.89,0,0,1,40,72.16a3.33,3.33,0,0,1,2.25.79l-.42.56a2.83,2.83,0,0,0-1.85-.7c-.83,0-1.36.46-1.36,1s.33,1,1.74,1.26" transform="translate(-4.67)"/><path class="cls-1" d="M54.3,78.67h-.78L52.77,77H49.29l-.76,1.69h-.74l2.92-6.45h.68ZM51,73.05l-1.46,3.27h2.92Z" transform="translate(-4.67)"/><polygon class="cls-1" points="60.21 72.26 60.91 72.26 60.91 78.67 60.34 78.67 56.2 73.41 56.2 78.67 55.49 78.67 55.49 72.26 56.17 72.26 60.21 77.4 60.21 72.26"/><polygon class="cls-1" points="69.74 78.67 69.01 78.67 69.01 72.93 66.86 72.93 66.86 72.26 71.89 72.26 71.89 72.93 69.74 72.93 69.74 78.67"/><path class="cls-1" d="M87.65,78.67h-.78L86.12,77H82.63l-.76,1.69h-.74l2.92-6.45h.68Zm-3.27-5.61-1.46,3.27h2.92Z" transform="translate(-4.67)"/><path class="cls-1" d="M100.1,78.78a3.32,3.32,0,0,1,0-6.63,3.33,3.33,0,0,1,2.5,1l-.49.53a2.79,2.79,0,0,0-2-.88,2.65,2.65,0,0,0,0,5.29,2.79,2.79,0,0,0,2.07-.93l.48.47a3.33,3.33,0,0,1-2.56,1.13" transform="translate(-4.67)"/><path class="cls-1" d="M112.93,78.67l-1.86-2.49h-1.84v2.49h-.72V72.26h2.76c1.41,0,2.32.76,2.32,1.91a1.88,1.88,0,0,1-1.74,1.88l2,2.62Zm-1.71-5.74h-2v2.6h2c1,0,1.65-.49,1.65-1.33s-.6-1.27-1.64-1.27" transform="translate(-4.67)"/><path class="cls-1" d="M125,75.93a2.67,2.67,0,1,1-5.34.05V72.26h.72v3.68c0,1.38.73,2.16,2,2.16s1.93-.71,1.93-2.12V72.26H125Z" transform="translate(-4.67)"/><polygon class="cls-1" points="126.45 72.91 126.45 72.26 131.45 72.26 131.45 72.74 127.29 78.02 131.45 78.02 131.45 78.67 126.31 78.67 126.31 78.18 130.46 72.91 126.45 72.91"/><path class="cls-2" d="M12.13,68.52a2.31,2.31,0,0,1-.73,1,2.21,2.21,0,0,1-1.21.36c-.51,0-1.25,0-2.22,0a9.71,9.71,0,0,1-1.69-.2q-1.05-.21-1.05-1.1a95.73,95.73,0,0,1,.61-10.76q.6-5.37,1.33-10.69,1.13-8.31,2.5-16.54t3.23-16.46c-.75.11-1.52.2-2.3.28s-1.55.18-2.3.28c-.43.11-.82.19-1.17.24A7.51,7.51,0,0,1,6,15.08c-.86,0-1.29-.35-1.29-1S5,13,5.8,12.65a11.34,11.34,0,0,1,2.62-.73,28.19,28.19,0,0,1,2.94-.32c1-.05,1.66-.08,2.1-.08A9.15,9.15,0,0,1,13.9,10q.28-.73.53-1.45a7.43,7.43,0,0,1,1.41-2.46,6.74,6.74,0,0,1,2.38-1.57,7.65,7.65,0,0,1,3-.65,1.4,1.4,0,0,1,.89.32,1.09,1.09,0,0,1,.4.89,2.56,2.56,0,0,1-.16.64,10.56,10.56,0,0,0-.93,2.74q-.29,1.45-.61,2.82a37.53,37.53,0,0,1,11.25,1.45,25,25,0,0,1,8.87,4.64,21,21,0,0,1,5.85,7.9,28,28,0,0,1,2.1,11.26,19.17,19.17,0,0,1-2.34,9.35,30.51,30.51,0,0,1-6,7.7,43.32,43.32,0,0,1-8.11,6,70.63,70.63,0,0,1-8.63,4.24q-2.34.89-5.41,1.77a20.19,20.19,0,0,1-5.56.89q-.4,1.37-.68,2.06m6.33-8c1.72-.51,3.44-1.12,5.16-1.81a61.28,61.28,0,0,0,7.22-3.55,34.91,34.91,0,0,0,6.65-4.92,24.76,24.76,0,0,0,4.88-6.37A16.33,16.33,0,0,0,44.27,36a21.08,21.08,0,0,0-1.93-9.16A20.61,20.61,0,0,0,37.09,20a24,24,0,0,0-7.66-4.35A29,29,0,0,0,20.24,14q-3,15-5.33,30.41-.65,4.27-1.21,8.51a64.6,64.6,0,0,0-.57,8.59,26.82,26.82,0,0,0,5.32-1" transform="translate(-4.67)"/><path class="cls-2" d="M185,27.78a99.36,99.36,0,0,1-1.89,10.81,85.25,85.25,0,0,1-3.39,11.13,49,49,0,0,1-5,9.92,26.19,26.19,0,0,1-6.86,7.1,15.16,15.16,0,0,1-8.83,2.7,11.36,11.36,0,0,1-2.14-.24,9.88,9.88,0,0,1-2.42-.81,7.18,7.18,0,0,1-2-1.37,2.64,2.64,0,0,1-.81-1.94,1,1,0,0,1,.49-.81A1.62,1.62,0,0,1,153,64a1.82,1.82,0,0,1,1.13.36l1.09.85a6,6,0,0,0,1.49.85,6.07,6.07,0,0,0,2.26.36,8,8,0,0,0,5.93-2.94,28.68,28.68,0,0,0,4.8-7.58,71.73,71.73,0,0,0,3.67-10.28Q175,39.92,176,34.47t1.53-10a67.72,67.72,0,0,0,.53-7.1,18.94,18.94,0,0,0-.12-1.94,9.47,9.47,0,0,0-.48-2.14,4.92,4.92,0,0,0-1.05-1.73,2.38,2.38,0,0,0-1.81-.73,6.79,6.79,0,0,0-3.63,1.25,24.08,24.08,0,0,0-3.75,3,35.07,35.07,0,0,0-3.31,3.71,24,24,0,0,0-2.22,3.31,24.94,24.94,0,0,0-1.85,5.24,23.67,23.67,0,0,0-.73,5.57,7.64,7.64,0,0,0,.24,2.06,12.06,12.06,0,0,0,.52,1.49l.53,1.21a3,3,0,0,1,.24,1.21q0,1.78-1.61,1.77a2.11,2.11,0,0,1-1.77-.85,5.88,5.88,0,0,1-1-2,11.88,11.88,0,0,1-.4-2.42c-.05-.83-.08-1.52-.08-2.06a22.12,22.12,0,0,1,.85-6,40.81,40.81,0,0,1,2.14-5.81,28.71,28.71,0,0,1,3.11-5.12,40.22,40.22,0,0,1,4.6-5.2,26.61,26.61,0,0,1,5.44-4,11.61,11.61,0,0,1,5.64-1.61A6.94,6.94,0,0,1,182,6.77,8,8,0,0,1,184.42,10a15,15,0,0,1,1,4.32q.2,2.34.2,4.52a78.77,78.77,0,0,1-.61,8.91" transform="translate(-4.67)"/><path class="cls-2" d="M210.71,51.19l-.11.11a17,17,0,0,1-3,2.38,6.35,6.35,0,0,1-3.31,1,3.58,3.58,0,0,1-2.5-.86,5.06,5.06,0,0,1-1.29-2,8.28,8.28,0,0,1-.51-2.41c-.06-.82-.08-1.56-.08-2.24q0-1.54.11-3c.07-1,.1-1.95.1-2.95a2.77,2.77,0,0,0-.05-.41l-.13.1c-.24.2-.42.37-.55.51A18.1,18.1,0,0,0,197,44.3c-.77,1.11-1.46,2.17-2.09,3.18a40.37,40.37,0,0,0-2.07,3.69c-.62,1.27-1.24,2.57-1.84,3.91a4.81,4.81,0,0,1-1,1.31,2.38,2.38,0,0,1-1.67.68h0a1.5,1.5,0,0,1-1.27-.64h0a2.18,2.18,0,0,1-.36-1.23,41.33,41.33,0,0,1,.83-8.08q.81-4.09,1.6-7.88c.17-.79.33-1.61.47-2.44s.3-1.68.48-2.49a3.75,3.75,0,0,1,1.31-2,3.47,3.47,0,0,1,2.28-.92,2,2,0,0,1,1.68.7,2.73,2.73,0,0,1,.45,1.64,10.55,10.55,0,0,1-.47,3c-.3,1-.61,1.93-.93,2.8a17.45,17.45,0,0,0-.86,2.9c0,.2-.08.4-.12.6l.29-.41c.76-1.07,1.58-2.11,2.47-3.14a26.07,26.07,0,0,1,2.71-2.73,4.36,4.36,0,0,1,2.69-1.29,2.11,2.11,0,0,1,1.69.78,4.45,4.45,0,0,1,.81,1.62,8.57,8.57,0,0,1,.31,1.8c0,.57.05,1.05.05,1.45,0,1.23,0,2.47-.11,3.7s-.1,2.43-.1,3.64c0,.31,0,.64,0,1a3.17,3.17,0,0,0,.16.88,1.26,1.26,0,0,0,.35.55.84.84,0,0,0,.59.17,3,3,0,0,0,1.79-.7,13.41,13.41,0,0,0,2-1.87,19.19,19.19,0,0,0,1.74-2.27,22.27,22.27,0,0,0,1.19-2l.06-.1,0,0,.65-3.17q.26-1.19.47-2.44c.15-.85.3-1.68.48-2.49a3.77,3.77,0,0,1,1.3-2,3.49,3.49,0,0,1,2.28-.92,2,2,0,0,1,1.68.71,2.77,2.77,0,0,1,.45,1.64,10.49,10.49,0,0,1-.47,3c-.3,1-.61,1.94-.93,2.8a18.44,18.44,0,0,0-.87,2.9c0,.2-.08.4-.12.6l.3-.42c.76-1.07,1.59-2.11,2.47-3.14a27.08,27.08,0,0,1,2.71-2.73,4.38,4.38,0,0,1,2.7-1.29,2.11,2.11,0,0,1,1.69.78,4.46,4.46,0,0,1,.82,1.62,8.86,8.86,0,0,1,.3,1.8q.06.85.06,1.45,0,1.85-.11,3.7t-.1,3.64c0,.31,0,.64,0,1a3.33,3.33,0,0,0,.15.87,1.32,1.32,0,0,0,.35.55.85.85,0,0,0,.59.16,3,3,0,0,0,1.79-.7,13.58,13.58,0,0,0,2-1.86,19.34,19.34,0,0,0,1.73-2.27,20.66,20.66,0,0,0,1.19-2c.15-.26.33-.55.55-.87a1.5,1.5,0,0,1,1.25-.72,1.32,1.32,0,0,1,1.11.58,1.8,1.8,0,0,1,.34,1,2,2,0,0,1-.17.74c-.09.21-.17.4-.25.55a22.36,22.36,0,0,1-4.23,5.82,17.19,17.19,0,0,1-3,2.38,6.34,6.34,0,0,1-3.31,1,3.56,3.56,0,0,1-2.51-.86,5.12,5.12,0,0,1-1.3-2,8.41,8.41,0,0,1-.5-2.41c-.05-.81-.08-1.56-.08-2.24q0-1.54.11-3c.07-1,.11-1.95.11-2.95a2.64,2.64,0,0,0,0-.41l-.13.1c-.24.2-.42.37-.55.5a18.32,18.32,0,0,0-2.39,2.85q-1.14,1.67-2.08,3.18-1.13,1.81-2.07,3.69c-.62,1.27-1.23,2.57-1.83,3.91a4.66,4.66,0,0,1-1,1.31,2.38,2.38,0,0,1-1.67.68h0a1.51,1.51,0,0,1-1.27-.64,2.18,2.18,0,0,1-.36-1.23,40.18,40.18,0,0,1,.4-5.63Z" transform="translate(-4.67)"/><path class="cls-2" d="M72.38,51.05q-1.09,1.3-2.34,2.52A19.54,19.54,0,0,1,67,56.05a5.8,5.8,0,0,1-3.11,1.09h0a3.21,3.21,0,0,1-2.43-1,5.73,5.73,0,0,1-1.22-2.12,10.24,10.24,0,0,1-.47-2.52c-.05-.85-.08-1.59-.08-2.24,0-1,0-2,.14-2.94s.13-1.87.13-2.83a2,2,0,0,0-.76-1.66A6,6,0,0,0,57.7,41q-.34.92-.73,1.9c-.34.85-.72,1.71-1.15,2.57a27.35,27.35,0,0,1-1.39,2.46,12.55,12.55,0,0,1-1.7,2.14,5.31,5.31,0,0,1-.7.58,1.9,1.9,0,0,1-1.11.37,1.16,1.16,0,0,1-1.24-1.24,2,2,0,0,1,.18-.84,3.09,3.09,0,0,1,.39-.64q1.51-2.18,2.83-4.47a12.25,12.25,0,0,0,1.55-4.54,6.42,6.42,0,0,1-1-2.08,9.26,9.26,0,0,1-.34-2.48,9.78,9.78,0,0,1,.2-1.73,10.24,10.24,0,0,1,.61-2.06,6.77,6.77,0,0,1,1.06-1.77,2.31,2.31,0,0,1,1.79-.88,1.56,1.56,0,0,1,1.36.76,5.43,5.43,0,0,1,.59,1.28,6.64,6.64,0,0,1,.29,1.46c0,.46.05.84.05,1.14a20.5,20.5,0,0,1-.14,2.37,4.51,4.51,0,0,0,1.37,1.21q1.07.61,2.11,1.34a7.68,7.68,0,0,1,1.89,1.86,5.17,5.17,0,0,1,.84,3.08A10,10,0,0,1,65,45q-.42,1.82-.73,3.64A21.65,21.65,0,0,0,64,52.23a6.26,6.26,0,0,0,.12,1.13c.1.27,0,.2.31.25a3.09,3.09,0,0,0,1.73-.78,18.61,18.61,0,0,0,2.26-2q1.14-1.19,2.12-2.41A23.46,23.46,0,0,0,72,46.46l.14-.2h0a21.32,21.32,0,0,1,.56-2.63,22.79,22.79,0,0,1,2-5,15.65,15.65,0,0,1,3.12-4.1,6.14,6.14,0,0,1,4.24-1.78,3.26,3.26,0,0,1,2.6,1.1,3.92,3.92,0,0,1,.89,2.62,7.07,7.07,0,0,1-.87,3.17,17.57,17.57,0,0,1-2.11,3.21,19.52,19.52,0,0,1-2.72,2.73,10.09,10.09,0,0,1-2.49,1.56,9.37,9.37,0,0,0-.19,1.8,4,4,0,0,0,.67,2.47,2.56,2.56,0,0,0,2.18.8,7.08,7.08,0,0,0,2.92-.6,11.83,11.83,0,0,0,2.6-1.6,14.92,14.92,0,0,0,2.22-2.25q.48-.6.9-1.2h0a18,18,0,0,1,.74-2.42,22.9,22.9,0,0,1,2.71-5.08A17.71,17.71,0,0,1,96,35a7.89,7.89,0,0,1,4.76-1.68,2.29,2.29,0,0,1,1.53.67,2.07,2.07,0,0,1,.76,1.52,1,1,0,0,1-.36.83,2.46,2.46,0,0,1-.44.29q-1.4.83-2.66,1.73a16.75,16.75,0,0,0-2.36,2.06A16.25,16.25,0,0,0,94.1,45a12.48,12.48,0,0,0-1.15,5.35A3.28,3.28,0,0,0,93,51v0h0a1.56,1.56,0,0,0,.92-.55,13.24,13.24,0,0,0,1.46-1.71A25.13,25.13,0,0,0,97,46.4c.5-.89,1-1.75,1.43-2.59s.84-1.59,1.16-2.3.59-1.25.76-1.59a5.94,5.94,0,0,1,.73-1.19A1.94,1.94,0,0,1,102.6,38a2.76,2.76,0,0,1,1,.2,1.22,1.22,0,0,1,.74,1.2,5,5,0,0,1-.4,1.72c-.24.63-.44,1.13-.56,1.48a15.68,15.68,0,0,0-.59,2.81,24.45,24.45,0,0,0-.18,2.84c0,.27,0,.69,0,1.24a11,11,0,0,0,.17,1.62,4.87,4.87,0,0,0,.45,1.37c.18.31.26.33.47.35a3.14,3.14,0,0,0,1.77-.73,16.85,16.85,0,0,0,2.18-1.91,27.81,27.81,0,0,0,2-2.28c.62-.8,1.09-1.43,1.38-1.89q.27-.43.59-.89l0-.06h0q.21-1.12.44-2.28.47-2.32.95-4.39t1-3.68a15.49,15.49,0,0,1,.83-2.31A4.15,4.15,0,0,1,117,30.61a6.37,6.37,0,0,1,2.53-.57,1.55,1.55,0,0,1,1.29.56,2,2,0,0,1,.38,1.26,5.39,5.39,0,0,1-.23,1.41,13.66,13.66,0,0,1-.55,1.55c-.21.51-.42,1-.63,1.5s-.39.9-.52,1.25a20.33,20.33,0,0,0-.92,2.86c0,.07,0,.14,0,.22q1-1.53,2.19-3A19.8,19.8,0,0,1,122.95,35a4.27,4.27,0,0,1,2.67-1.21,2,2,0,0,1,1.57.66,3.92,3.92,0,0,1,.77,1.34,6.77,6.77,0,0,1,.34,1.54,12.23,12.23,0,0,1,.08,1.32c0,1,0,2-.05,3.06s-.05,2-.05,3v1.68a5.94,5.94,0,0,0,.06.84l.06-.08q1-1.59,2-3.1t2.12-3L134,39a25.58,25.58,0,0,1,1.85-2.36,12.16,12.16,0,0,1,2.2-2,4.59,4.59,0,0,1,2.65-.89,3.17,3.17,0,0,1,1.78.51,4.08,4.08,0,0,1,1.19,1.22,5.34,5.34,0,0,1,.65,1.55,7.23,7.23,0,0,1,.2,1.63,50.52,50.52,0,0,1-.37,6.12,50,50,0,0,0-.36,6c0,.23,0,.51,0,.84a3.08,3.08,0,0,0,.13.78,1.35,1.35,0,0,0,.3.52.5.5,0,0,0,.4.13,3.36,3.36,0,0,0,1.72-.62,15.74,15.74,0,0,0,2.15-1.64,23.35,23.35,0,0,0,2-2c.63-.71,1.11-1.29,1.43-1.71.19-.26.42-.56.71-.9a1.78,1.78,0,0,1,1.37-.7,1.14,1.14,0,0,1,1.13.74,2.81,2.81,0,0,1,.16.93,1.56,1.56,0,0,1-.27.85c-.13.2-.25.38-.37.53-.54.72-1.24,1.55-2.11,2.51a27.78,27.78,0,0,1-2.88,2.75A21.19,21.19,0,0,1,146.47,56a6.71,6.71,0,0,1-3.23,1h0a3.23,3.23,0,0,1-2.4-.9,5.31,5.31,0,0,1-1.2-2,9.64,9.64,0,0,1-.47-2.45c-.06-.81-.08-1.54-.08-2.19q0-2.39.24-4.78t.23-4.71c0-.12,0-.3,0-.54a3.9,3.9,0,0,0-.09-.62,1.13,1.13,0,0,0-.17-.41s0,0,0,0-.59.19-1.18.8a20.26,20.26,0,0,0-2,2.42Q135,43,133.88,44.87t-2.12,3.58q-1,1.73-1.75,3.11c-.51.93-.91,1.61-1.2,2a3.36,3.36,0,0,1-.69.81,1.82,1.82,0,0,1-1.2.39c-.77,0-1.16-.66-1.42-1.36a12.84,12.84,0,0,1-.6-2.66q-.21-1.57-.32-3.42t-.1-3.6V38.83a4.52,4.52,0,0,0,0-.52,3.15,3.15,0,0,0-1,.77,22.61,22.61,0,0,0-1.94,2.43q-1.06,1.5-2.18,3.32t-2.12,3.55c-.66,1.15-1.24,2.18-1.72,3.08s-.81,1.56-1,2a4.89,4.89,0,0,1-.8,1.22,2.08,2.08,0,0,1-1.6.68,1.49,1.49,0,0,1-1.23-.56,1.85,1.85,0,0,1-.38-1.16,16.93,16.93,0,0,1,.17-2h0A23.3,23.3,0,0,1,109,53.35a14.23,14.23,0,0,1-2.72,2,6.15,6.15,0,0,1-3,.86h0a3.2,3.2,0,0,1-2.49-1.11,7,7,0,0,1-1.31-2.4,11.92,11.92,0,0,1-.55-2.8c0-.2,0-.39,0-.57l-.33.48a22,22,0,0,1-1.85,2.34,14.26,14.26,0,0,1-2.16,2,4.17,4.17,0,0,1-2.45.89,2.8,2.8,0,0,1-2-.72A4.49,4.49,0,0,1,89,52.68a7.82,7.82,0,0,1-.41-1.35h0a18.87,18.87,0,0,1-2,1.67,16.26,16.26,0,0,1-3.86,2,12.72,12.72,0,0,1-4.33.75,6.07,6.07,0,0,1-2.94-.67,6,6,0,0,1-2-1.73A6.81,6.81,0,0,1,72.37,51Zm6.88-11.31a25.47,25.47,0,0,0-1.13,2.94c-.08.24-.15.46-.2.67l.56-.47a13.64,13.64,0,0,0,3.12-4A4.25,4.25,0,0,0,82.12,37a1.38,1.38,0,0,0-.13-.58c0-.06,0,0-.2-.07s-.63.19-1.11.89a16.13,16.13,0,0,0-1.42,2.55" transform="translate(-4.67)"/><polygon class="cls-3" points="248.75 16.58 247.2 0 244.01 15.94 244.02 15.96 245.81 18.34 248.74 16.6 248.75 16.58"/><polygon class="cls-3" points="251.96 18.08 249.45 21.79 250.34 23.21 250.33 23.22 266.2 20.18 251.94 18.09 251.96 18.08"/><polygon class="cls-3" points="247.7 25.64 244.96 23.62 242.82 25.18 242.83 25.18 244.59 46.31 247.69 25.65 247.7 25.64"/><polygon class="cls-3" points="241.36 23.51 242.88 20.76 242.33 18.47 242.32 18.48 216.41 22.22 241.36 23.51 241.36 23.51"/><polygon class="cls-2" points="248.74 16.6 245.81 18.34 244.02 15.96 244.02 15.94 243.54 18.3 242.33 18.48 242.33 18.47 242.89 20.76 241.36 23.51 241.36 23.51 242.7 23.58 242.83 25.18 242.82 25.18 244.97 23.62 247.7 25.64 247.7 25.65 247.99 23.67 250.34 23.22 250.34 23.21 249.46 21.8 251.96 18.08 251.94 18.09 248.85 17.63 248.75 16.58 248.74 16.6"/><polygon class="cls-4" points="251.97 18.09 248.87 17.64 248.77 16.59 248.76 16.61 255.76 12.46 251.98 18.09 251.97 18.09"/><polygon class="cls-4" points="250.37 23.22 255.46 31.36 247.73 25.65 247.72 25.65 248.01 23.68 250.36 23.23 250.37 23.22"/><polygon class="cls-4" points="242.84 25.18 238.87 28.07 241.38 23.52 241.38 23.52 242.72 23.59 242.85 25.19 242.84 25.18"/><polygon class="cls-4" points="242.35 18.48 240.65 11.45 244.04 15.97 244.04 15.95 243.56 18.31 242.35 18.48 242.35 18.48"/></svg>