<svg width="475" height="255" xmlns="http://www.w3.org/2000/svg"><title>icons</title><g fill="none" fill-rule="evenodd"><path d="M.256 91.657h28.35V60.332H.257v31.325z" fill="#FFF"/><path d="M38.145 75.77h6.027c1.73-.025 2.615-.908 2.656-2.647-.04-1.17-.914-1.78-2.62-1.83h-6.063v4.476zm0-8.1h5.166c1.485-.024 2.247-.783 2.288-2.28-.04-.894-.79-1.365-2.25-1.414h-5.203v3.695zm9.68 1.306c1.615 1.073 2.472 2.468 2.57 4.183-.164 3.447-2.02 5.272-5.57 5.475l-10.382-.012V60.34h9.79c3.108.18 4.748 1.973 4.92 5.38-.057 1.626-.5 2.71-1.33 3.256zM61.34 65.208l-2.804 6.95h5.535l-2.73-6.95zM52.02 78.623l7.38-18.294h3.69l7.366 18.28-3.923.013-1.106-2.805H57.06l-1.106 2.805h-3.936zM68.45 60.33h4.33l4.28 5.975 4.377-5.976h4.23l-6.763 9.146v9.147h-3.69v-9.147M98.432 67.646h5.165c1.484-.024 2.246-.695 2.288-2.012-.042-1.203-.792-1.83-2.25-1.878H98.43v3.89zm-3.69 10.977V60.33h8.043c4.305 0 6.457 1.755 6.457 5.267 0 3.643-2.148 5.464-6.444 5.464h-4.366v7.563h-3.69zM117.743 65.208l-2.805 6.95h5.535l-2.73-6.95zm-9.323 13.415l7.38-18.294h3.69l7.367 18.28-3.924.013-1.107-2.805h-8.364l-1.106 2.805h-3.936zM141.09 60.33v3.414h-6.15v14.88h-3.69v-14.88h-6.15V60.33M143.73 78.623V60.33h3.69v7.316h8.598v-7.33h3.69v18.295l-3.69.013V71.06h-8.597v7.563M38.742 91.926c-.922 0-1.883-.247-2.478-.8-.75-.686-.903-1.677-.922-2.515 0-.666 0-1.295.038-2.247.038-.99.02-1.43-.038-1.677-.04-.172-.346-.248-.807-.305-.04-.018-.04-.056-.04-.418 0-.115.06-.134.232-.134.365 0 1.23.02 1.518.02.557 0 .94-.058 1.98-.058.075 0 .095.038.075.23-.02.285-.057.304-.154.323-.73.114-1.037.228-1.114.705-.057.457-.134 1.334-.134 3.563 0 .954.326 1.525.807 1.907.44.342 1 .457 1.652.457.94 0 1.537-.515 1.806-.858.403-.514.52-1.448.52-2.61 0-1.01-.02-2.058-.117-2.668-.057-.285-.25-.324-1.23-.38-.057 0-.115-.096-.095-.058 0-.172.097-.42.174-.496.038-.057.096-.095.173-.095.23 0 1.19.018 1.556.018.384 0 1.037-.038 1.422-.038.057 0 .076.038.076.21-.075.267-.114.38-.172.4-.173.02-.48.114-.595.153-.077.037-.154.114-.192.285-.038.23-.134.896-.19 2.763-.06 1.41-.174 2.268-.79 3.03-.71.84-1.96 1.296-2.94 1.296M52.633 91.602c0 .038-.04.096-.096.096-.596 0-1.23-.038-1.806-.038-.403 0-.92.038-1.17.038l-.155-.476c0-.02.02-.058.097-.077.69-.152.806-.324.864-.724.058-.323.173-1.18.173-2.342V86.02c0-.82-.04-1.086-.155-1.24-.115-.227-.27-.304-1.037-.418-.096-.02-.135-.057-.135-.152v-.363c0-.057.02-.076.096-.057.71.038.998.057 2.17.038.192 0 .308.04.346.153.057.173.327.496.75.954.652.705 2.19 2.324 4.437 4.46.077-1.03.096-3.393.02-4.346-.058-.476-.154-.515-1.076-.63-.096 0-.135-.037-.135-.113l-.02-.477h1.5c.46 0 1.172-.057 1.652-.038.057 0 .096.02.096.057l.115.44c-1.057.342-1.152.38-1.25 1.81-.056 1.238-.075 2.285-.075 3.41 0 1.105.038 1.79.038 1.924 0 .268-.365.42-.596.496-.096.04-.153 0-.23-.133-.384-.514-.673-.876-1.23-1.448-.826-.838-3.074-3.2-4.226-4.363-.116-.115-.212-.076-.23.038-.02.305-.06.876-.06 1.695 0 1.106-.018 2.496.136 2.915.115.382.576.458 1.133.515M65.313 91.012c.327 0 .52-.096.596-.382.037-.17.095-.59.095-2.095V86.61c0-.78 0-1.22-.02-1.543-.057-.496-.268-.61-1.23-.61-.037 0-.095-.057-.095-.095 0-.095.077-.343.115-.42.04-.095.077-.113.29-.113 1.113 0 1.44.017 1.92.017.672 0 1.498-.018 1.652-.018.115 0 .23.017.25.093l.038.458c-1.172.172-1.268.268-1.306.44-.06.228-.097.685-.097 1.885v1.754c0 .95.038 1.695.134 2.228.04.228.154.267 1.057.362.02.057.057.42.038.533 0 .076-.038.096-.192.096-.903-.02-1.48-.02-2.056-.02-.922.02-1.537.038-1.67.038-.078 0-.135-.057-.155-.172l-.04-.42c0-.037 0-.075.04-.075M74.516 83.904c.077-.095.096-.114.173-.095.614.037 1.498.057 1.767.037.46 0 .903 0 1.325.02.058-.02.058.037.04.19l-.06.343-.46.133c-.154.038-.192.115-.115.324.442 1.182 1.48 3.582 1.96 4.554.095.23.172.306.23.268.5-.972 1.768-4.135 1.998-5.03.02-.115-.02-.115-.288-.134l-.538-.038c-.078 0-.097-.076-.078-.152.115-.457.154-.496.327-.496.23 0 .978.02 1.44.02.44 0 .864-.02 1.018-.02.134 0 .172.02.21.076.02.096.04.172.06.44 0 .056-.02.075-.098.094h-.23c-.673 0-.807.4-1.248 1.258-.327.704-1.69 3.734-2.287 5.144-.058.134-.442.8-.538.99-.058.096-.096.134-.27.134-.248 0-.345-.038-.383-.114-.02-.057-.154-.305-.46-1.086-1.077-2.725-1.96-4.63-2.326-5.392-.346-.686-.538-.877-1.23-.99-.115 0-.153-.077-.134-.154M89.983 86.21c0-.952-.04-1.39-.077-1.505-.04-.095-.096-.134-1-.267l.02-.552c.02-.04.02-.058.077-.058h.52c.383 0 .94.02 1.94.02 1.344 0 2.554-.058 3.688-.058.173 0 .27 0 .327.077.04.037.058.076.02.304-.077.573-.097 1.22-.077 1.545 0 .057-.058.076-.192.076-.385 0-.385-.075-.423-.17-.212-.953-.346-1.144-1.787-1.144-.75 0-1.133.038-1.287.057-.153.02-.21.115-.21.267 0 .8.02 1.62.02 2.363 0 .114.095.21.152.21h.846c.576 0 .826.018 1.287-.02.46-.02.557-.152.71-.78.02-.058.116-.077.462-.077.096 0 .115.038.115.076-.038.267-.096.934-.096 1.315 0 .514.02.724.058 1.124 0 .04-.135.058-.557.096-.04-.133-.135-.438-.192-.57-.058-.268-.135-.383-.5-.42-.48-.04-.788-.04-1.44-.04-.52 0-.654.02-.75.058-.077.04-.115.134-.115 1.792 0 .438.038.686.153.876.058.115.288.23 1.383.23 1.403 0 2.056-.21 2.42-1.392.02-.057.06-.076.155-.076.136 0 .328.038.366.038.038 0 .077.02.077.133-.058.782-.23 1.525-.365 1.886-.04.06-.134.077-.192.077-.5 0-1.902-.037-3.113-.037-1.152 0-2.21.057-3.44.057-.037-.038-.037-.42-.037-.496.02-.056.038-.075.096-.075.768-.133.864-.17.884-.438.02-.153.077-.896.077-1.925M107.1 86.096c0-1.182-.768-1.81-1.767-1.81-.23 0-.5.038-.69.133-.078.075-.117.113-.136.228-.077.82-.077 1.543-.077 2.858 0 .19.058.248.558.248.403 0 .998-.04 1.344-.19.442-.23.77-.763.77-1.45v-.018zm-1.46 5.164c-.057.4-.077.42-.19.42-.232 0-1.29-.02-2.057-.02-.538 0-1.018.038-1.25.038-.133 0-.153-.038-.21-.286-.04-.23 0-.248.02-.267.71-.114.883-.248.92-.667.02-.457.06-1.048.06-2.134v-1.467c0-.686 0-1.448-.04-1.848 0-.23-.038-.42-.25-.46-.23-.056-.384-.094-.576-.132-.134-.02-.154-.057-.173-.152l-.02-.458c.827-.02 1.422-.02 1.94-.038.5-.038 1.174-.095 1.71-.095.847 0 1.807.152 2.384.59.48.344.807.915.807 1.563 0 .896-.826 1.524-1.192 1.753-.057.04-.134.135-.115.192.5 1.257 1.21 2.324 2.152 3.048.423.324.826.515 1.037.59.058.02.058.077.058.306 0 .19-.02.21-.134.21-1.172-.04-2.132-.363-2.862-.992-.653-.533-1.095-1.295-1.518-2.057-.21-.38-.442-.553-1.114-.553-.576 0-.615.114-.615.23 0 1.466.02 2.152.155 2.247.134.116.75.192 1.076.268v.172zM122.125 89.545c0 .99-.538 1.6-1.23 1.924-.69.304-1.67.418-2.17.418-.558 0-1.345-.095-1.787-.17-.25-.04-.27-.02-.557.15-.057.078-.115.096-.287.096-.058 0-.174-.095-.174-.19-.058-.953-.135-1.524-.25-2.496.038-.057.27-.114.403-.114.096 0 .154.037.192.133.346 1.257 1.518 2 2.575 2 1.018 0 1.806-.495 1.787-1.41 0-.857-1.134-1.314-2.056-1.62-.864-.304-1.69-.704-2.074-1.142-.27-.305-.48-.725-.48-1.353 0-.896.537-1.467 1.094-1.734.577-.286 1.384-.42 2.075-.42.404 0 .942.04 1.384.115.17.038.268.038.325-.076.02-.133.058-.172.116-.152.48.037.5.057.5.095-.096.42.02 1.563.116 2.19l-.404.21c-.057.02-.096 0-.135-.114-.154-.495-.365-.895-.672-1.162-.326-.305-.865-.514-1.537-.514-.864 0-1.48.552-1.48 1.162 0 .857.827 1.238 1.883 1.58.943.306 1.75.668 2.115.992.557.457.73.953.73 1.58M128.485 91.012c.326 0 .518-.096.595-.382.04-.17.096-.59.096-2.095V86.61c0-.78 0-1.22-.02-1.543-.057-.496-.268-.61-1.23-.61-.037 0-.094-.057-.094-.095 0-.095.076-.343.115-.42.038-.095.077-.113.288-.113 1.114 0 1.44.017 1.92.017.674 0 1.5-.018 1.654-.018.114 0 .23.017.248.093l.038.458c-1.17.172-1.267.268-1.306.44-.058.228-.096.685-.096 1.885v1.754c0 .95.038 1.695.135 2.228.037.228.152.267 1.055.362.02.057.058.42.04.533 0 .076-.04.096-.193.096-.903-.02-1.48-.02-2.056-.02-.922.02-1.537.038-1.672.038-.077 0-.134-.057-.153-.172l-.038-.42c0-.037 0-.075.04-.075M139.724 91.164c1.02-.152 1.172-.267 1.21-.514.04-.21.154-1.03.154-2.573v-1.18c0-.954 0-1.697-.038-2.21 0-.116-.096-.173-.288-.173-1.345 0-1.845.076-2.23.19-.134.058-.287.515-.422 1.05-.057.132-.134.17-.21.132-.328-.152-.462-.286-.443-.362 0-.076.058-.23.096-.343.23-.532.423-1.16.538-1.618.06-.267.097-.38.136-.38l.192.018c.173.02.268.038.288.114.02.305.077.438.173.457.133.058.575.058 3.092.058 2.325 0 2.862 0 3.247-.076.172-.038.25-.286.345-.476.153-.02.307.02.46.057.078.038.117.095.04.266-.212.61-.23.97-.308 2.134 0 .076-.058.114-.154.114-.307 0-.48-.02-.48-.057v-.895c0-.095-.077-.17-.192-.21-.306-.152-1.4-.17-1.824-.17-.346 0-.442.095-.442.19-.04.324-.04.952-.04 2.286v1.24c0 1.505.02 2 .078 2.287.077.342.327.533 1.364.59.077.038.077.076.058.17l-.02.344c-.057.06-.057.077-.134.077-.134 0-1.345-.037-1.998-.037-.864 0-1.94.037-2.056.037-.115 0-.154-.018-.172-.076M154.633 88.325c0-.133-.04-.267-.135-.438-.384-.762-1.614-2.572-2.132-3.24-.097-.133-.27-.17-.77-.17-.056 0-.094-.02-.134-.058-.02-.058 0-.458 0-.516.04-.057.078-.076.116-.076.77 0 1.287.04 1.71.02.557 0 1.153-.077 1.556-.077.077 0 .077 0 .077.097 0 .285-.038.476-.095.552l-.46.075c-.155.038-.193.115-.097.324.326.57 1.19 1.905 1.46 2.286.096.076.192.076.25 0 .27-.343 1.613-2.115 1.613-2.344 0-.114-.075-.21-.633-.286l-.057-.457c0-.134.02-.153.077-.153.115 0 .922.02 1.402 0 .46-.02 1.114-.04 1.306-.04.115 0 .153 0 .173.04.037.057.037.476.037.533-.768.076-1.018.324-1.48.858-.672.8-1.344 1.543-1.997 2.42-.23.323-.25.4-.25.933 0 .878.02 1.316.058 1.735.057.38.095.514.268.572.115.037.385.095.96.17.116.02.116.077.116.173-.038.228-.057.4-.096.457-.48-.02-1.422-.057-2.363-.057-.46 0-1.422.037-1.556.037-.115 0-.134 0-.154-.057-.038-.057-.057-.285-.057-.514 1.268-.172 1.287-.19 1.287-1.372M6.394 62.66c.125.95.333 1.032 1.376 1.156.668.083 1.627.083 2.253.083.542 0 2.043-.125 2.836-.54 1.072-.637 1.804-1.725 2.118-3.028h-8.65c.014 1.1.04 1.97.066 2.327M16.86 62.535c-1 .743-1.79 1.075-2.167 1.28-.208.125-.124.414.126.455 1.945.376 4.044 1.486 5.284 3.4 1.77.265 3.732.888 5.586 2.258 1.903 1.39 2.682 3.44 2.918 4.818V60.332H18.606c-.32.827-.868 1.557-1.745 2.203M15.11 78.818c-.392.136-.81.242-1.23.325-.02 1.344-.034 2.505-.034 3.183 0 .538.083.62.5.744.5.207 1.25.372 2.085.372 1.044 0 2.67-.165 3.588-.496 2.126-.826 4.546-3.14 4.546-6.983v-.042c0-.622.074-4.704-3.623-6.364.162.6.26 1.243.26 1.947 0 3.76-2.627 6.075-6.09 7.315M14.095 70.3c-.047.85-.122 3.874-.177 6.755 1.966-.954 3.278-2.726 3.278-5.43 0-.94-.137-1.88-.507-2.762-1.44.05-2.553.817-2.595 1.437" fill="#7A222F"/><path d="M7.173 68.77c-.21 0-.25-.082-.25-.33 0-.206.25-.826.375-1.033.792 0 3.086.165 4.546.165.674 0 2.58-.034 4.04-.058-.202-.25-.43-.492-.69-.722-1.502-1.447-3.295-1.57-5.34-1.57-1.5 0-2.876.082-3.377.536-.166.248-.375.58-.375 2.522 0 7.645 0 7.81.917 8.72.917.908 1.292.908 2.71.908h.042c.234 0 .466-.008.695-.02 0-4.446-.048-7.477-.542-8.373-.334-.62-.583-.744-2.752-.744M10.467 84.764v-5.328c-1-.015-4.872-.164-6.533-.164-1.757 0-3.152.198-3.678.206v12.18h9.933c.026-.113.05-.232.07-.364.08-.662.207-2.686.207-6.53M2.474 75.47c.124-3.06.166-4.96.166-6.406V62.7v-2.368H.255V78.23c.3-.167.71-.346.966-.487 1.127-.537 1.21-.785 1.252-2.272M26.833 86.962l-1.56 2.876h-.866l1.556-2.793h-1.635v-.655h2.505v.572zm-3.06 1.054c0 1.118-.533 1.882-1.522 1.882-.506 0-.85-.168-1.143-.41l.403-.576c.253.202.467.296.76.296.428 0 .657-.32.706-.783-.17.143-.402.236-.706.236-.755 0-1.242-.412-1.242-1.112v-.01c0-.694.542-1.207 1.327-1.207.467 0 .74.115 1.004.375.248.247.412.62.412 1.3v.01zm-3.223.857c0 .64-.57 1.014-1.34 1.014-.772 0-1.344-.394-1.344-.994v-.01c0-.42.194-.665.562-.833-.268-.162-.443-.384-.443-.753v-.01c0-.527.488-.946 1.224-.946.734 0 1.22.415 1.22.946v.01c0 .37-.173.592-.44.754.352.182.56.404.56.813v.01zm-3.365.965h-.755v-2.704l-.606.147-.16-.62 1-.294h.52v3.472zm8.67-8.173c-2.417 2.397-6.505 3.18-9.758 3.18h-2.002c-.166 0-.375.085-.375 1.118 0 1.198.084 2.976.25 4.587.032.44.088.807.207 1.107h14.43V76.844c-.283 1.992-1.28 3.364-2.75 4.82z" fill="#7A222F"/><path d="M19.21 88.4c-.35 0-.603.158-.603.424v.01c0 .236.224.427.602.427.376 0 .6-.185.6-.427v-.01c0-.265-.254-.423-.6-.423M22.38 86.982c-.378 0-.592.215-.592.52v.01c0 .307.23.52.607.52.378 0 .597-.218.597-.514v-.01c0-.306-.23-.526-.612-.526M19.21 87.8c.3 0 .495-.178.495-.42v-.01c0-.21-.183-.404-.496-.404-.315 0-.5.188-.5.4v.01c0 .24.195.423.5.423" fill="#66232A"/><path d="M.432 53.422h47.843V.56H.432v52.862z" fill="#FFF"/><path d="M64.37 26.61h10.17c2.92-.04 4.413-1.53 4.483-4.466-.07-1.975-1.543-3.004-4.42-3.087H64.37v7.553zm0-13.665h8.717c2.504-.042 3.79-1.324 3.86-3.85-.07-1.508-1.335-2.304-3.797-2.386h-8.78v6.235zm16.334 2.202c2.726 1.81 4.172 4.164 4.338 7.06-.278 5.817-3.41 8.897-9.402 9.24l-17.517-.02V.576h16.52c5.245.3 8.012 3.326 8.303 9.075-.097 2.744-.845 4.576-2.242 5.495zM103.513 8.788l-4.733 11.73h9.34l-4.607-11.73zM87.78 31.426L100.233.556h6.227l12.432 30.85-6.62.02-1.87-4.733H96.29l-1.868 4.733H87.78zM115.508.555h7.306l7.223 10.085 7.39-10.085h7.138L133.15 15.99v15.436h-6.226V15.99M166.103 12.903h8.718c2.504-.04 3.79-1.173 3.86-3.395-.07-2.03-1.335-3.087-3.798-3.17h-8.78v6.565zm-6.226 18.523V.556h13.573c7.264 0 10.897 2.963 10.897 8.89 0 6.147-3.626 9.22-10.876 9.22h-7.367v12.76h-6.226zM198.69 8.788l-4.732 11.73h9.34L198.69 8.79zm-15.73 22.638L195.41.556h6.228l12.432 30.85-6.62.02-1.87-4.733h-14.113l-1.866 4.733h-6.64zM238.087.555v5.763H227.71v25.108h-6.227V6.318h-10.377V.555M242.546 31.426V.556h6.227v12.347h14.508V.535h6.226v30.87l-6.225.02v-12.76h-14.507v12.76M65.377 53.876c-1.556 0-3.177-.418-4.182-1.35-1.264-1.158-1.523-2.83-1.556-4.245 0-1.124 0-2.185.064-3.793.064-1.672.032-2.412-.065-2.83-.066-.29-.584-.418-1.363-.514-.064-.032-.064-.097-.064-.708 0-.193.096-.224.388-.224.617 0 2.077.032 2.563.032.94 0 1.59-.096 3.34-.096.13 0 .16.065.13.386-.034.482-.098.514-.26.547-1.233.192-1.75.384-1.88 1.188-.098.772-.228 2.25-.228 6.013 0 1.61.55 2.573 1.362 3.217.745.578 1.686.77 2.788.77 1.588 0 2.594-.867 3.048-1.446.68-.867.875-2.443.875-4.404 0-1.704-.032-3.473-.195-4.5-.097-.483-.42-.548-2.075-.644-.097 0-.194-.16-.16-.097 0-.29.16-.707.29-.836.065-.098.162-.162.292-.162.39 0 2.01.033 2.626.033.65 0 1.75-.064 2.4-.064.096 0 .13.065.13.354-.13.45-.196.643-.293.675-.292.033-.81.193-1.005.258-.13.063-.26.192-.325.482-.064.385-.226 1.51-.324 4.662-.098 2.38-.292 3.826-1.33 5.112-1.2 1.414-3.307 2.186-4.96 2.186M88.818 53.33c0 .063-.065.16-.162.16-1.005 0-2.075-.064-3.048-.064-.68 0-1.556.064-1.977.064l-.26-.804c0-.032.034-.097.164-.128 1.167-.257 1.36-.547 1.458-1.223.098-.546.292-1.993.292-3.954V43.91c0-1.382-.064-1.833-.26-2.09-.194-.385-.453-.514-1.75-.707-.162-.03-.227-.096-.227-.256v-.612c0-.096.032-.128.162-.096 1.2.065 1.685.096 3.663.065.324 0 .52.065.584.258.096.29.55.836 1.264 1.607 1.103 1.19 3.696 3.923 7.49 7.525.13-1.737.162-5.724.032-7.33-.097-.805-.26-.87-1.815-1.062-.162 0-.227-.065-.227-.194l-.033-.803h2.53c.778 0 1.978-.096 2.788-.064.097 0 .162.032.162.096l.194.74c-1.782.58-1.944.643-2.106 3.055-.098 2.09-.13 3.858-.13 5.756 0 1.865.065 3.022.065 3.247 0 .45-.617.707-1.006.836-.162.064-.26 0-.39-.226-.648-.867-1.134-1.478-2.074-2.442-1.394-1.415-5.187-5.403-7.133-7.364-.194-.193-.356-.128-.39.064-.03.515-.096 1.48-.096 2.86 0 1.867-.03 4.213.228 4.92.195.644.973.773 1.913.87M110.216 52.332c.55 0 .875-.16 1.005-.643.066-.29.163-.997.163-3.537v-3.248c0-1.318 0-2.058-.032-2.604-.096-.836-.453-1.028-2.074-1.028-.065 0-.162-.097-.162-.16 0-.162.13-.58.194-.708.066-.162.13-.193.487-.193 1.88 0 2.43.032 3.242.032 1.134 0 2.53-.03 2.788-.03.194 0 .39.03.42.16l.066.77c-1.976.29-2.14.45-2.204.74-.097.386-.16 1.157-.16 3.183v2.96c0 1.606.063 2.86.225 3.76.067.386.26.45 1.785.612.032.096.097.707.064.9 0 .128-.065.16-.325.16-1.524-.03-2.496-.03-3.47-.03-1.555.03-2.592.063-2.82.063-.13 0-.226-.096-.26-.29l-.063-.707c0-.064 0-.128.064-.128M125.746 40.34c.13-.162.163-.194.29-.162 1.04.064 2.53.097 2.985.064.778 0 1.524 0 2.237.033.098-.033.098.064.066.32l-.098.58-.778.225c-.26.064-.324.193-.194.546.745 1.994 2.496 6.045 3.307 7.685.162.387.29.516.388.45.844-1.638 2.984-6.976 3.372-8.487.033-.193-.033-.193-.486-.225l-.908-.064c-.13 0-.162-.13-.13-.258.195-.77.26-.835.552-.835.39 0 1.653.032 2.432.032.745 0 1.458-.03 1.718-.03.226 0 .29.03.357.127.03.16.064.288.096.74 0 .095-.03.127-.16.16h-.39c-1.135 0-1.362.675-2.107 2.12-.55 1.19-2.853 6.304-3.858 8.683-.097.225-.746 1.35-.908 1.672-.097.16-.162.225-.454.225-.42 0-.584-.064-.648-.193-.033-.097-.26-.515-.778-1.833-1.816-4.598-3.307-7.813-3.923-9.1-.584-1.157-.908-1.48-2.075-1.67-.196 0-.26-.13-.228-.26M151.846 44.23c0-1.608-.065-2.348-.13-2.54-.065-.16-.162-.226-1.686-.45l.032-.933c.033-.065.033-.096.13-.096h.876c.648 0 1.588.032 3.274.032 2.27 0 4.312-.096 6.225-.096.29 0 .454 0 .55.13.065.063.098.127.033.513-.13.964-.162 2.057-.13 2.603 0 .097-.097.13-.324.13-.648 0-.648-.13-.713-.29-.357-1.608-.584-1.93-3.015-1.93-1.264 0-1.913.065-2.172.097-.26.032-.357.193-.357.45 0 1.35.03 2.733.03 3.987 0 .193.164.354.26.354h1.428c.972 0 1.393.033 2.172-.032.778-.03.94-.257 1.2-1.317.03-.096.194-.128.777-.128.163 0 .194.064.194.13-.063.45-.16 1.574-.16 2.217 0 .867.032 1.22.097 1.896 0 .064-.227.097-.94.16-.065-.224-.227-.74-.324-.963-.098-.45-.227-.644-.843-.708-.81-.065-1.33-.065-2.432-.065-.875 0-1.102.033-1.264.097-.13.064-.195.225-.195 3.022 0 .74.064 1.157.258 1.478.098.194.487.387 2.335.387 2.366 0 3.468-.354 4.085-2.348.032-.097.097-.128.26-.128.226 0 .55.063.615.063.065 0 .13.032.13.225-.098 1.32-.39 2.573-.616 3.183-.065.098-.227.13-.325.13-.842 0-3.21-.064-5.25-.064-1.947 0-3.73.096-5.805.096-.065-.064-.065-.707-.065-.836.033-.097.065-.13.162-.13 1.297-.224 1.46-.288 1.492-.738.032-.257.13-1.51.13-3.248M180.732 44.037c0-1.994-1.297-3.055-2.982-3.055-.39 0-.843.064-1.167.226-.13.128-.195.192-.227.385-.13 1.383-.13 2.605-.13 4.823 0 .322.097.42.94.42.68 0 1.686-.067 2.27-.324.745-.385 1.296-1.285 1.296-2.443v-.033zm-2.464 8.714c-.097.676-.13.708-.324.708-.39 0-2.172-.032-3.47-.032-.906 0-1.717.064-2.106.064-.227 0-.26-.064-.357-.482-.064-.386 0-.42.034-.45 1.2-.193 1.49-.42 1.556-1.126.032-.772.097-1.768.097-3.6v-2.477c0-1.157 0-2.443-.065-3.12 0-.385-.064-.706-.42-.77-.39-.097-.65-.16-.974-.226-.227-.032-.26-.097-.292-.258l-.032-.77c1.394-.034 2.4-.034 3.274-.066.844-.064 1.978-.16 2.886-.16 1.426 0 3.048.256 4.02.996.81.58 1.362 1.544 1.362 2.637 0 1.51-1.394 2.57-2.01 2.957-.097.064-.227.225-.195.32.844 2.124 2.044 3.924 3.632 5.146.714.546 1.394.87 1.75.996.098.032.098.128.098.515 0 .32-.032.353-.226.353-1.98-.065-3.6-.61-4.83-1.672-1.104-.9-1.85-2.186-2.563-3.472-.355-.644-.744-.933-1.88-.933-.97 0-1.036.194-1.036.387 0 2.476.032 3.633.26 3.794.226.194 1.263.322 1.814.45v.29zM206.086 49.857c0 1.67-.907 2.7-2.075 3.247-1.166.514-2.82.707-3.663.707-.94 0-2.27-.16-3.015-.288-.42-.064-.454-.033-.94.257-.097.128-.195.16-.486.16-.097 0-.292-.16-.292-.322-.097-1.607-.227-2.57-.42-4.212.063-.096.452-.192.68-.192.162 0 .26.063.323.225.584 2.12 2.562 3.375 4.345 3.375 1.718 0 3.047-.837 3.015-2.38 0-1.446-1.913-2.22-3.47-2.733-1.458-.514-2.852-1.19-3.5-1.928-.454-.516-.81-1.223-.81-2.284 0-1.51.907-2.476 1.847-2.926.973-.482 2.335-.707 3.5-.707.683 0 1.59.064 2.336.193.29.064.453.064.55-.13.034-.224.098-.29.195-.256.81.064.843.096.843.16-.162.708.033 2.638.195 3.698l-.68.354c-.098.032-.163 0-.228-.193-.26-.836-.616-1.51-1.135-1.96-.55-.516-1.46-.87-2.593-.87-1.46 0-2.497.933-2.497 1.962 0 1.447 1.395 2.09 3.177 2.67 1.59.513 2.95 1.124 3.567 1.67.94.772 1.232 1.61 1.232 2.67M216.818 52.332c.55 0 .875-.16 1.005-.643.065-.29.162-.997.162-3.537v-3.248c0-1.318 0-2.058-.033-2.604-.097-.836-.453-1.028-2.075-1.028-.064 0-.16-.097-.16-.16 0-.162.128-.58.193-.708.065-.162.13-.193.487-.193 1.88 0 2.43.032 3.242.032 1.133 0 2.527-.03 2.787-.03.195 0 .388.03.42.16l.066.77c-1.978.29-2.14.45-2.205.74-.097.386-.16 1.157-.16 3.183v2.96c0 1.606.063 2.86.225 3.76.065.386.26.45 1.783.612.033.096.098.707.066.9 0 .128-.066.16-.325.16-1.524-.03-2.497-.03-3.47-.03-1.555.03-2.593.063-2.82.063-.13 0-.227-.096-.26-.29l-.064-.707c0-.064 0-.128.065-.128M235.785 52.59c1.718-.258 1.977-.45 2.042-.87.065-.352.26-1.735.26-4.34v-1.993c0-1.608 0-2.86-.065-3.73 0-.193-.162-.29-.487-.29-2.27 0-3.112.13-3.76.322-.228.096-.486.867-.714 1.768-.096.225-.226.29-.356.225-.55-.257-.777-.482-.745-.61 0-.13.096-.387.16-.58.39-.9.714-1.96.91-2.733.097-.45.16-.643.226-.643l.324.032c.292.03.453.064.487.192.03.515.13.74.29.772.228.097.973.097 5.22.097 3.924 0 4.83 0 5.48-.128.292-.064.42-.483.584-.804.26-.033.52.032.78.096.128.064.194.16.064.45-.357 1.03-.39 1.64-.52 3.602 0 .128-.096.193-.26.193-.517 0-.81-.033-.81-.098v-1.51c0-.162-.128-.29-.323-.355-.517-.257-2.366-.29-3.08-.29-.583 0-.745.162-.745.322-.065.546-.065 1.607-.065 3.857v2.09c0 2.54.033 3.377.13 3.86.13.578.55.9 2.302.996.13.064.13.13.097.29l-.033.578c-.098.098-.098.13-.228.13-.228 0-2.27-.064-3.372-.064-1.46 0-3.274.063-3.47.063-.193 0-.26-.032-.29-.13M260.943 47.8c0-.227-.065-.45-.227-.74-.648-1.286-2.724-4.342-3.6-5.467-.16-.225-.453-.29-1.295-.29-.097 0-.16-.03-.227-.095-.032-.097 0-.773 0-.87.066-.096.13-.127.195-.127 1.297 0 2.172.065 2.886.032.94 0 1.945-.128 2.626-.128.13 0 .13 0 .13.16 0 .483-.066.805-.163.934l-.778.127c-.26.065-.325.194-.164.548.552.964 2.01 3.215 2.465 3.858.163.13.325.13.422 0 .454-.578 2.724-3.568 2.724-3.954 0-.193-.13-.353-1.07-.482l-.098-.772c0-.225.033-.257.13-.257.194 0 1.556.032 2.366 0 .78-.033 1.88-.064 2.205-.064.194 0 .26 0 .29.065.066.096.066.804.066.9-1.297.13-1.718.547-2.497 1.447-1.135 1.35-2.27 2.604-3.372 4.084-.39.546-.42.675-.42 1.575 0 1.48.03 2.22.096 2.927.097.643.162.868.454.965.194.064.648.16 1.62.29.195.03.195.127.195.29-.064.384-.097.674-.162.77-.81-.033-2.4-.096-3.987-.096-.778 0-2.4.063-2.625.063-.195 0-.227 0-.26-.097-.065-.096-.097-.482-.097-.868 2.14-.29 2.173-.32 2.173-2.315M10.79 4.487c.21 1.604.562 1.744 2.323 1.953 1.126.14 2.744.14 3.8.14.915 0 3.448-.21 4.786-.908C23.51 4.596 24.745 2.76 25.274.56h-14.6c.028 1.855.07 3.327.115 3.927M28.454 4.278c-1.688 1.254-3.025 1.813-3.66 2.162-.35.21-.21.696.212.766 3.285.634 6.828 2.507 8.92 5.735 2.985.45 6.297 1.5 9.425 3.814 3.213 2.346 4.528 5.806 4.926 8.13V.56H31.398c-.54 1.396-1.465 2.628-2.944 3.718M25.498 31.755c-.662.23-1.367.408-2.073.548-.037 2.27-.06 4.228-.06 5.372 0 .908.14 1.046.844 1.256.843.35 2.11.63 3.517.63 1.76 0 4.505-.28 6.054-.84 3.59-1.393 7.672-5.298 7.672-11.783v-.07c0-1.052.125-7.94-6.115-10.74.273 1.01.436 2.097.436 3.284 0 6.346-4.432 10.252-10.275 12.345M23.786 17.382c-.08 1.43-.206 6.536-.3 11.398 3.32-1.61 5.53-4.6 5.53-9.16 0-1.588-.23-3.175-.854-4.664-2.428.085-4.306 1.38-4.376 2.426" fill="#7A222F"/><path d="M12.104 14.8c-.353 0-.422-.138-.422-.557 0-.348.422-1.395.633-1.743 1.337 0 5.208.278 7.672.278 1.137 0 4.355-.058 6.816-.1-.34-.42-.724-.828-1.164-1.217-2.535-2.44-5.56-2.65-9.01-2.65-2.533 0-4.855.14-5.7.907-.28.42-.633.977-.633 4.255 0 12.9 0 13.18 1.548 14.715 1.548 1.533 2.182 1.533 4.575 1.533h.07c.395 0 .786-.013 1.173-.035-.002-7.5-.082-12.616-.915-14.13-.563-1.044-.984-1.254-4.644-1.254M17.664 41.79V32.8c-1.69-.027-8.222-.28-11.026-.28-2.965 0-5.318.335-6.206.35V53.42h16.762c.045-.19.086-.39.118-.613.14-1.118.352-4.535.352-11.02M4.175 26.107c.21-5.163.28-8.37.28-10.81V4.556c0-1.395 0-2.736-.002-3.996H.433v30.2c.508-.28 1.198-.58 1.63-.82 1.9-.906 2.04-1.324 2.112-3.833M45.28 45.498l-2.634 4.854h-1.458l2.625-4.713h-2.76v-1.107h4.228v.965zm-5.165 1.78c0 1.886-.898 3.174-2.567 3.174-.855 0-1.435-.283-1.93-.69l.68-.973c.428.34.79.498 1.283.498.723 0 1.11-.54 1.193-1.32-.286.24-.68.398-1.192.398-1.273 0-2.095-.698-2.095-1.88v-.015c0-1.17.914-2.037 2.24-2.037.787 0 1.25.192 1.694.632.418.416.695 1.048.695 2.196v.017zm-5.436 1.446c0 1.08-.966 1.71-2.266 1.71s-2.265-.664-2.265-1.678v-.016c0-.708.326-1.123.947-1.405-.453-.274-.747-.65-.747-1.272v-.017c0-.888.823-1.596 2.064-1.596 1.242 0 2.064.7 2.064 1.596v.017c0 .623-.294.998-.747 1.272.597.307.95.68.95 1.37v.02zM29 50.352h-1.275v-4.564l-1.022.25-.27-1.048 1.687-.498H29v5.86zM43.633 36.56c-4.08 4.045-10.98 5.368-16.47 5.368h-3.377c-.28 0-.633.14-.633 1.884 0 2.023.142 5.022.423 7.74.053.742.147 1.363.347 1.87h24.352V28.424c-.478 3.36-2.16 5.677-4.642 8.136z" fill="#7A222F"/><path d="M32.414 47.925c-.587 0-1.015.266-1.015.715v.016c0 .4.377.723 1.014.723.638 0 1.015-.316 1.015-.724v-.016c0-.45-.43-.715-1.016-.715M37.766 45.53c-.637 0-.998.366-.998.882v.016c0 .516.386.874 1.024.874.637 0 1.006-.367 1.006-.866v-.016c0-.516-.386-.89-1.032-.89M32.414 46.91c.512 0 .84-.298.84-.706v-.017c0-.357-.31-.682-.84-.682-.528 0-.838.317-.838.673v.018c0 .407.327.714.838.714" fill="#66232A"/><g fill="#6A1E26"><path d="M336.85 14.325c.772 5.528 2.053 6.01 8.48 6.728 4.11.483 10.018.483 13.874.483 3.34 0 12.586-.724 17.47-3.127C383.29 14.7 387.797 8.37 389.728.79h-53.29c.097 6.39.255 11.465.413 13.533M402.898 13.557c-6.14 4.306-11 6.225-13.307 7.42-1.276.72-.764 2.393.77 2.633 11.948 2.176 24.83 8.608 32.437 19.692 10.86 1.54 22.907 5.15 34.284 13.09 11.684 8.054 16.465 19.934 17.91 27.916V.792h-61.384c-1.966 4.79-5.326 9.022-10.708 12.765M390.07 110.162c-2.406.788-4.97 1.4-7.54 1.883-.132 7.787-.216 14.515-.216 18.443 0 3.116.508 3.592 3.068 4.312 3.07 1.196 7.68 2.154 12.797 2.154 6.4 0 16.383-.958 22.016-2.874 13.05-4.787 27.898-18.196 27.898-40.46v-.244c0-3.61.456-27.257-22.236-36.876.99 3.468 1.584 7.202 1.584 11.278 0 21.787-16.12 35.198-37.37 42.384M383.402 58.273c-.293 4.916-.75 22.444-1.088 39.134 12.066-5.522 20.115-15.79 20.115-31.45 0-5.45-.842-10.9-3.11-16.01-8.834.29-15.662 4.734-15.918 8.326"/><path d="M343.007 50.855c-1.285 0-1.537-.48-1.537-1.916 0-1.197 1.537-4.792 2.302-5.988 4.864 0 18.94.956 27.903.956 4.136 0 15.843-.2 24.793-.34-1.238-1.448-2.634-2.848-4.233-4.183-9.216-8.38-20.22-9.1-32.766-9.1-9.215 0-17.662.48-20.734 3.113-1.02 1.438-2.3 3.354-2.3 14.61 0 44.294 0 45.25 5.63 50.52 5.63 5.266 7.934 5.266 16.638 5.266h.254c1.437 0 2.86-.045 4.266-.12-.007-25.755-.296-43.316-3.326-48.51-2.048-3.59-3.58-4.31-16.89-4.31M363.06 144.03v-30.867c-6.148-.09-29.902-.954-40.1-.954-10.782 0-19.34 1.147-22.57 1.194v70.567h60.963c.164-.653.315-1.337.43-2.105.506-3.834 1.277-15.564 1.277-37.834M314.003 88.5c.764-17.724 1.02-28.736 1.02-37.115V14.513c0-4.792 0-9.393-.008-13.72H300.39v103.69c1.85-.962 4.36-2 5.93-2.816 6.915-3.114 7.426-4.55 7.683-13.166M462.794 154.444l-9.582 16.67h-5.305l9.547-16.186h-10.036v-3.794h15.376v3.31zm-18.79 6.11c0 6.477-3.264 10.902-9.335 10.902-3.112 0-5.218-.974-7.02-2.372l2.474-3.338c1.555 1.17 2.866 1.713 4.667 1.713 2.624 0 4.03-1.854 4.334-4.537-1.038.827-2.47 1.37-4.333 1.37-4.635 0-7.625-2.397-7.625-6.45v-.058c0-4.024 3.324-6.994 8.146-6.994 2.867 0 4.545.66 6.163 2.17 1.526 1.428 2.532 3.596 2.532 7.538v.055zm-19.77 4.967c0 3.71-3.507 5.874-8.236 5.874-4.73 0-8.24-2.28-8.24-5.76v-.057c0-2.43 1.19-3.854 3.45-4.825-1.65-.94-2.716-2.226-2.716-4.365v-.06c0-3.05 2.99-5.48 7.506-5.48 4.514 0 7.505 2.4 7.505 5.48v.06c0 2.14-1.07 3.424-2.716 4.365 2.167 1.055 3.448 2.34 3.448 4.707v.06zm-20.652 5.593h-4.638V155.44l-3.72.858-.978-3.596 6.133-1.71h3.202v20.12zm53.218-47.355c-14.843 13.887-39.935 18.432-59.896 18.432h-12.288c-1.022 0-2.302.482-2.302 6.467 0 6.946.515 17.242 1.537 26.58.196 2.542.538 4.673 1.266 6.415h88.568V95.824c-1.738 11.54-7.86 19.49-16.884 27.934z"/><path d="M416.076 163c-2.137 0-3.692.913-3.692 2.454v.056c0 1.37 1.374 2.48 3.692 2.48s3.69-1.08 3.69-2.48v-.056c0-1.54-1.556-2.454-3.69-2.454M435.1 154.81c-2.32 0-3.632 1.25-3.632 3.022v.056c0 1.77 1.404 3 3.724 3 2.318 0 3.66-1.258 3.66-2.97v-.057c0-1.77-1.404-3.05-3.752-3.05M415.434 158.825c1.86 0 3.05-1.026 3.05-2.425v-.06c0-1.224-1.128-2.34-3.05-2.34s-3.05 1.087-3.05 2.31v.06c0 1.4 1.19 2.455 3.05 2.455"/></g><path d="M206.45 92.75c-3.9-3.45-6.45-5.775-6.45-8.625C200 81.8 201.8 80 204.125 80c1.275 0 2.55.6 3.375 1.575.825-.975 2.1-1.575 3.375-1.575C213.2 80 215 81.8 215 84.125c0 2.85-2.55 5.175-6.45 8.625l-1.05 1.05-1.05-1.05z" fill="#494142"/><path d="M226.45 92.75c-3.9-3.45-6.45-5.775-6.45-8.625C220 81.8 221.8 80 224.125 80c1.275 0 2.55.6 3.375 1.575.825-.975 2.1-1.575 3.375-1.575C233.2 80 235 81.8 235 84.125c0 2.85-2.55 5.175-6.45 8.625l-1.05 1.05-1.05-1.05z" fill="#FFF"/><path d="M246.45 92.75c-3.9-3.45-6.45-5.775-6.45-8.625C240 81.8 241.8 80 244.125 80c1.275 0 2.55.6 3.375 1.575.825-.975 2.1-1.575 3.375-1.575C253.2 80 255 81.8 255 84.125c0 2.85-2.55 5.175-6.45 8.625l-1.05 1.05-1.05-1.05z" fill="#6A1E26"/><path d="M205.248 60c2.9 0 5.25 2.352 5.25 5.25 0 1.04-.294 1.996-.813 2.803l3.97 3.95c.46.46.46 1.204 0 1.655-.224.226-.518.342-.826.342-.288 0-.595-.116-.828-.342l-3.95-3.97c-.808.518-1.765.812-2.804.812-2.898 0-5.25-2.352-5.25-5.25s2.352-5.25 5.25-5.25zm0 8.75c1.928 0 3.5-1.572 3.5-3.5s-1.572-3.5-3.5-3.5c-1.927 0-3.5 1.572-3.5 3.5s1.573 3.5 3.5 3.5z" fill="#494142"/><path d="M225.248 60c2.9 0 5.25 2.352 5.25 5.25 0 1.04-.294 1.996-.813 2.803l3.97 3.95c.46.46.46 1.204 0 1.655-.224.226-.518.342-.826.342-.288 0-.595-.116-.828-.342l-3.95-3.97c-.808.518-1.765.812-2.804.812-2.898 0-5.25-2.352-5.25-5.25s2.352-5.25 5.25-5.25zm0 8.75c1.928 0 3.5-1.572 3.5-3.5s-1.572-3.5-3.5-3.5c-1.927 0-3.5 1.572-3.5 3.5s1.573 3.5 3.5 3.5z" fill="#152027"/><path d="M245.248 60c2.9 0 5.25 2.352 5.25 5.25 0 1.04-.294 1.996-.813 2.803l3.97 3.95c.46.46.46 1.204 0 1.655-.224.226-.518.342-.826.342-.288 0-.595-.116-.828-.342l-3.95-3.97c-.808.518-1.765.812-2.804.812-2.898 0-5.25-2.352-5.25-5.25s2.352-5.25 5.25-5.25zm0 8.75c1.928 0 3.5-1.572 3.5-3.5s-1.572-3.5-3.5-3.5c-1.927 0-3.5 1.572-3.5 3.5s1.573 3.5 3.5 3.5z" fill="#FFF"/><path d="M213.333 104.667h-.666v-1.334c0-1.866-1.467-3.333-3.334-3.333-1.866 0-3.333 1.467-3.333 3.333v1.334h-.667c-.733 0-1.333.6-1.333 1.333v6.667c0 .733.6 1.333 1.333 1.333h8c.734 0 1.334-.6 1.334-1.333V106c0-.733-.6-1.333-1.334-1.333zm-4 6c-.733 0-1.333-.6-1.333-1.334 0-.733.6-1.333 1.333-1.333.734 0 1.334.6 1.334 1.333 0 .734-.6 1.334-1.334 1.334zm2.067-6h-4.133v-1.334c0-1.133.933-2.066 2.066-2.066 1.134 0 2.067.933 2.067 2.066v1.334zM232.857 107.143c1.457 0 2.572-1.114 2.572-2.572 0-1.456-1.116-2.57-2.573-2.57-1.457 0-2.57 1.114-2.57 2.57 0 1.46 1.113 2.573 2.57 2.573zm-6.857 0c1.457 0 2.57-1.114 2.57-2.572 0-1.456-1.113-2.57-2.57-2.57-1.457 0-2.57 1.114-2.57 2.57 0 1.46 1.113 2.573 2.57 2.573zm0 1.714c-1.97 0-6 1.03-6 3V114h12v-2.143c0-1.97-4.03-3-6-3zm6.857 0c-.257 0-.514 0-.857.086 1.03.686 1.714 1.714 1.714 2.914V114h5.143v-2.143c0-1.97-4.028-3-6-3z" fill="#66242B"/><path d="M108.67 100c-2.578 0-4.67 2.092-4.67 4.67 0 .826.212 1.62.602 2.282l3.807 6.904c.047.082.143.144.26.144.095 0 .21-.062.26-.144l3.806-6.904c.37-.663.602-1.456.602-2.283 0-2.578-2.092-4.67-4.67-4.67zm0 6.42c-.972 0-1.75-.78-1.75-1.75 0-.98.778-1.75 1.75-1.75.97 0 1.75.77 1.75 1.75 0 .97-.78 1.75-1.75 1.75zM155.87 101.366c-.06-.062-.164-.082-.26-.048l-4.28 1.43-4.565-1.738c-.07-.013-.13-.013-.2 0l-4.374 1.477c-.108.048-.19.157-.19.273v2.126l.615 1.005c-.24.145-.45.275-.615.404v6.385c0 .095.048.177.116.238.075.048.178.07.26.035l4.272-1.43 4.574 1.703c.027.02.082.02.11.02.033 0 .067 0 .08-.02l4.376-1.442c.13-.028.212-.144.212-.274v-9.92c0-.094-.048-.176-.13-.224zm-12.298 4.02l-.45-1.067c.58-.26 1.182-.44 1.797-.555l.204 1.15c-.533.1-1.053.258-1.552.47zm4.21-.438c-.498-.096-1.03-.144-1.585-.144l-.034-1.17c.65-.012 1.278.05 1.88.18l-.26 1.134zm2.4 1.1c-.423-.32-.888-.58-1.373-.793l.436-1.066c.58.225 1.15.546 1.648.935l-.71.923zm.794.718l.86-.8c.76.814 1.1 1.545 1.115 1.573l-.512.245-.54.26c0-.02-.287-.602-.922-1.28zm2.4 4.163c-.65 0-1.17-.52-1.17-1.17 0-.65.52-1.17 1.17-1.17.648 0 1.168.52 1.168 1.17 0 .65-.52 1.17-1.17 1.17zM135.002 101.668c0-.034-.014-.082-.035-.11-.013-.068-.082-.13-.143-.163l-3.466-1.38c-.15-.05-.308.02-.376.15l-1.914 3.82c-.06.117-.027.246.055.342l1.86 1.86c-.958 1.544-2.25 2.857-3.795 3.814l-1.86-1.88c-.095-.08-.225-.115-.34-.054l-3.822 1.914c-.13.07-.2.226-.15.376l1.38 3.466c.034.062.082.13.164.164.028.014.075.014.11.014.034 0 .068 0 .116-.014 6.35-.8 11.402-5.838 12.202-12.202.014-.048.014-.082.014-.116zM168.5 101c-3.864 0-7.186 2.395-8.5 5.795 1.314 3.4 4.636 5.796 8.5 5.796s7.186-2.395 8.5-5.795c-1.314-3.4-4.636-5.795-8.5-5.795zm0 9.66c-2.164 0-3.864-1.7-3.864-3.865 0-2.163 1.7-3.863 3.864-3.863 2.164 0 3.864 1.7 3.864 3.863 0 2.164-1.7 3.864-3.864 3.864zm0-6.183c-1.314 0-2.318 1.005-2.318 2.318 0 1.314 1.004 2.32 2.318 2.32s2.318-1.006 2.318-2.32c0-1.313-1.004-2.318-2.318-2.318z" fill="#6A1E26"/><path d="M11.956 100H2.044C.916 100 0 100.916 0 102.044v9.912C0 113.084.916 114 2.044 114h9.912c1.128 0 2.044-.916 2.044-2.044v-9.912c0-1.128-.916-2.044-2.044-2.044zM7 104.375c1.45 0 2.625 1.176 2.625 2.625 0 1.45-1.176 2.625-2.625 2.625-1.45 0-2.625-1.176-2.625-2.625 0-1.45 1.176-2.625 2.625-2.625zm5.544 7.875c0 .164-.13.294-.294.294H1.75c-.164 0-.294-.13-.294-.294v-6.125h1.552c-.062.28-.09.574-.09.875 0 2.256 1.826 4.08 4.082 4.08s4.08-1.824 4.08-4.08c0-.3-.026-.595-.088-.875h1.552v6.125zm0-8.75c0 .164-.13.294-.294.294H10.5c-.164 0-.294-.13-.294-.294v-1.75c0-.164.13-.294.294-.294h1.75c.164 0 .294.13.294.294v1.75z" fill="#3F729A"/><path d="M54 102.51c-.52.23-1.066.388-1.654.457.6-.356 1.052-.923 1.264-1.593-.547.328-1.17.567-1.81.697-.54-.546-1.286-.9-2.113-.9-1.586 0-2.865 1.277-2.865 2.863 0 .226.014.458.062.663-2.38-.13-4.485-1.21-5.913-2.946-.24.424-.39.86-.39 1.395 0 .984.507 1.86 1.286 2.378-.47-.013-.91-.143-1.3-.355v.034c0 1.395.993 2.557 2.305 2.817-.245.067-.505.1-.765.1-.177 0-.355-.02-.533-.054.356 1.135 1.43 1.983 2.673 1.996-.97.78-2.222 1.36-3.56 1.36-.234 0-.46-.013-.685-.047 1.265.813 2.79 1.17 4.41 1.17 5.277 0 8.16-4.376 8.16-8.17V104c.555-.404 1.04-.903 1.43-1.49z" fill="#55ACEF"/><path d="M67 102.044c-7 0-7 0-7 4.956s0 4.956 7 4.956 7 0 7-4.956 0-4.956-7-4.956zm-1.75 7.58v-5.25L69.625 107l-4.375 2.625z" fill="#E02A25"/><path d="M34 100.875c0-.48-.396-.875-.875-.875h-12.25c-.48 0-.875.396-.875.875v12.25c0 .48.396.875.875.875h6.61v-5.44h-1.75v-2.018h1.75V104.8c0-1.594.97-2.66 2.892-2.66.848 0 1.436.095 1.436.095v1.82H30.5c-.58 0-.875.327-.875.9v1.587h2.044l-.295 2.017h-1.75V114h3.5c.48 0 .875-.396.875-.875v-12.25z" fill="#3A5999"/><path d="M6.4 133.6v-4.8h3.2v4.8h4v-6.4H16L8 120l-8 7.2h2.4v6.4h4z" fill="#BD414F"/><g transform="translate(60 120)" fill="#FFF"><ellipse cx="10" cy="10" rx="3.2" ry="3.2"/><path d="M7 0L5.2 2H2C.9 2 0 2.9 0 4v12c0 1.1.9 2 2 2h16c1.1 0 2-.9 2-2V4c0-1.1-.9-2-2-2h-3.2L13 0H7zm3 15c-2.8 0-5-2.2-5-5s2.2-5 5-5 5 2.2 5 5-2.2 5-5 5z"/></g><path d="M15 180c8.284 0 15-6.716 15-15 0-8.284-6.716-15-15-15-8.284 0-15 6.716-15 15 0 8.284 6.716 15 15 15zm-3.75-20.25V171l11.25-6-11.25-5.25zM110.918 136.664l-6.14-6.14 6.14-6.14c.082-.107.13-.224.13-.364 0-.14-.048-.247-.13-.352l-3.54-3.54c-.105-.08-.21-.128-.35-.128-.14 0-.258.047-.364.13l-6.14 6.14-6.14-6.14c-.107-.083-.224-.13-.364-.13-.14 0-.247.047-.352.13l-3.54 3.538c-.08.105-.128.21-.128.352 0 .14.047.257.13.363l6.14 6.14-6.14 6.14c-.083.107-.13.224-.13.364 0 .14.047.246.13.352l3.538 3.538c.105.082.21.13.352.13.14 0 .257-.048.363-.13l6.14-6.14 6.14 6.14c.107.082.224.13.364.13.14 0 .246-.048.352-.13l3.538-3.54c.082-.105.13-.21.13-.35 0-.14-.048-.258-.13-.364z" fill="#FFF"/><path d="M11.956 200H2.044C.916 200 0 200.916 0 202.044v9.912C0 213.084.916 214 2.044 214h9.912c1.128 0 2.044-.916 2.044-2.044v-9.912c0-1.128-.916-2.044-2.044-2.044zM7 204.375c1.45 0 2.625 1.176 2.625 2.625 0 1.45-1.176 2.625-2.625 2.625-1.45 0-2.625-1.176-2.625-2.625 0-1.45 1.176-2.625 2.625-2.625zm5.544 7.875c0 .164-.13.294-.294.294H1.75c-.164 0-.294-.13-.294-.294v-6.125h1.552c-.062.28-.09.574-.09.875 0 2.256 1.826 4.08 4.082 4.08s4.08-1.824 4.08-4.08c0-.3-.026-.595-.088-.875h1.552v6.125zm0-8.75c0 .164-.13.294-.294.294H10.5c-.164 0-.294-.13-.294-.294v-1.75c0-.164.13-.294.294-.294h1.75c.164 0 .294.13.294.294v1.75zM54 202.51c-.52.23-1.066.388-1.654.457.6-.356 1.052-.923 1.264-1.593-.547.328-1.17.567-1.81.697-.54-.546-1.286-.9-2.113-.9-1.586 0-2.865 1.277-2.865 2.863 0 .226.014.458.062.663-2.38-.13-4.485-1.21-5.913-2.946-.24.424-.39.86-.39 1.395 0 .984.507 1.86 1.286 2.378-.47-.013-.91-.143-1.3-.355v.034c0 1.395.993 2.557 2.305 2.817-.245.067-.505.1-.765.1-.177 0-.355-.02-.533-.054.356 1.135 1.43 1.983 2.673 1.996-.97.78-2.222 1.36-3.56 1.36-.234 0-.46-.013-.685-.047 1.265.813 2.79 1.17 4.41 1.17 5.277 0 8.16-4.376 8.16-8.17V204c.555-.404 1.04-.903 1.43-1.49zM67 202.044c-7 0-7 0-7 4.956s0 4.956 7 4.956 7 0 7-4.956 0-4.956-7-4.956zm-1.75 7.58v-5.25L69.625 207l-4.375 2.625zM34 200.875c0-.48-.396-.875-.875-.875h-12.25c-.48 0-.875.396-.875.875v12.25c0 .48.396.875.875.875h6.61v-5.44h-1.75v-2.018h1.75V204.8c0-1.594.97-2.66 2.892-2.66.848 0 1.436.095 1.436.095v1.82H30.5c-.58 0-.875.327-.875.9v1.587h2.044l-.295 2.017h-1.75V214h3.5c.48 0 .875-.396.875-.875v-12.25z" fill="#152027"/><path d="M11.956 220H2.044C.916 220 0 220.916 0 222.044v9.912C0 233.084.916 234 2.044 234h9.912c1.128 0 2.044-.916 2.044-2.044v-9.912c0-1.128-.916-2.044-2.044-2.044zM7 224.375c1.45 0 2.625 1.176 2.625 2.625 0 1.45-1.176 2.625-2.625 2.625-1.45 0-2.625-1.176-2.625-2.625 0-1.45 1.176-2.625 2.625-2.625zm5.544 7.875c0 .164-.13.294-.294.294H1.75c-.164 0-.294-.13-.294-.294v-6.125h1.552c-.062.28-.09.574-.09.875 0 2.256 1.826 4.08 4.082 4.08s4.08-1.824 4.08-4.08c0-.3-.026-.595-.088-.875h1.552v6.125zm0-8.75c0 .164-.13.294-.294.294H10.5c-.164 0-.294-.13-.294-.294v-1.75c0-.164.13-.294.294-.294h1.75c.164 0 .294.13.294.294v1.75zM54 222.51c-.52.23-1.066.388-1.654.457.6-.356 1.052-.923 1.264-1.593-.547.328-1.17.567-1.81.697-.54-.546-1.286-.9-2.113-.9-1.586 0-2.865 1.277-2.865 2.863 0 .226.014.458.062.663-2.38-.13-4.485-1.21-5.913-2.946-.24.424-.39.86-.39 1.395 0 .984.507 1.86 1.286 2.378-.47-.013-.91-.143-1.3-.355v.034c0 1.395.993 2.557 2.305 2.817-.245.067-.505.1-.765.1-.177 0-.355-.02-.533-.054.356 1.135 1.43 1.983 2.673 1.996-.97.78-2.222 1.36-3.56 1.36-.234 0-.46-.013-.685-.047 1.265.813 2.79 1.17 4.41 1.17 5.277 0 8.16-4.376 8.16-8.17V224c.555-.404 1.04-.903 1.43-1.49zM67 222.044c-7 0-7 0-7 4.956s0 4.956 7 4.956 7 0 7-4.956 0-4.956-7-4.956zm-1.75 7.58v-5.25L69.625 227l-4.375 2.625zM34 220.875c0-.48-.396-.875-.875-.875h-12.25c-.48 0-.875.396-.875.875v12.25c0 .48.396.875.875.875h6.61v-5.44h-1.75v-2.018h1.75V224.8c0-1.594.97-2.66 2.892-2.66.848 0 1.436.095 1.436.095v1.82H30.5c-.58 0-.875.327-.875.9v1.587h2.044l-.295 2.017h-1.75V234h3.5c.48 0 .875-.396.875-.875v-12.25z" fill="#FFF"/><path d="M126 127h8v-2h-8v2zm-4.1-1c0-2.3 1.8-4.1 4.1-4.1h3V120h-3c-3.3 0-6 2.7-6 6s2.7 6 6 6h3v-1.9h-3c-2.3 0-4.1-1.8-4.1-4.1zm12.1-6h-3v1.9h3c2.3 0 4.1 1.8 4.1 4.1s-1.8 4.1-4.1 4.1h-3v1.9h3c3.3 0 6-2.7 6-6s-2.7-6-6-6z" fill="#6A1E26"/><path d="M105 150c-2.21 0-4.002 1.793-4.002 4.002 0 .71.182 1.39.516 1.957l3.263 5.917c.04.07.123.123.223.123.082 0 .182-.053.223-.123l3.263-5.918c.317-.57.516-1.25.516-1.958 0-2.21-1.793-4.002-4.002-4.002zm0 5.502c-.832 0-1.5-.668-1.5-1.5 0-.838.668-1.5 1.5-1.5s1.5.662 1.5 1.5c0 .832-.668 1.5-1.5 1.5zM118 150c-3.322 0-6 2.678-6 6s2.678 6 6 6 6-2.678 6-6-2.678-6-6-6zm2.654 8.654l-3.193-1.804c-.058-.047-.11-.088-.17-.14-.192-.194-.292-.458-.292-.71v-4.5H118l.914 4.002 2.45 2.443-.71.71z" fill="#152027"/><path d="M36.215 243.523l2.813-2.813c.08-.087.22-.102.344-.065.125.05.19.168.19.292v1.56h3.436c2.76 0 5.002 2.242 5.002 5.003 0 1.252-.47 2.395-1.23 3.28-.052.067-.14.104-.228.104-.073 0-.153-.015-.212-.088l-1.348-1.333c-.11-.125-.11-.293-.022-.418.33-.417.542-.952.542-1.545 0-1.37-1.113-2.498-2.504-2.498h-3.436v1.56c0 .125-.065.242-.19.293-.124.037-.264.022-.344-.065l-2.813-2.813c-.124-.124-.124-.33 0-.454zm8.57 7.954l-2.813 2.813c-.08.087-.22.102-.344.065-.125-.05-.19-.168-.19-.292v-1.56H38c-2.76 0-5.002-2.242-5.002-5.003 0-1.252.47-2.395 1.23-3.28.052-.067.14-.104.228-.104.073 0 .153.015.212.088l1.348 1.355c.11.102.124.27.022.395-.33.417-.542.952-.542 1.545 0 1.392 1.127 2.498 2.504 2.498h3.435v-1.56c0-.125.066-.242.19-.293.125-.037.265-.022.345.065l2.813 2.813c.124.124.124.33 0 .454zm-27.947-5.317c-.088-.08-.103-.22-.073-.345.05-.124.175-.19.3-.19h4.79l2.102-5.42c.05-.117.168-.205.293-.205.125 0 .242.088.293.205l2.102 5.42h4.79c.125 0 .25.066.3.19.03.125.015.264-.073.345l-3.647 3.632.922 4.842c.015.124-.036.24-.14.315-.1.065-.24.065-.343 0l-4.204-2.71-4.204 2.71c-.05.035-.117.05-.17.05-.05 0-.123-.015-.174-.05-.103-.075-.154-.192-.14-.316l.923-4.842-3.647-3.632zM14.907 252.034c-1.128-1.407-3.78-2.036-6.907-2.036v2.812c0 .125-.066.227-.176.278-.05.022-.088.037-.14.037-.065 0-.138-.015-.19-.066l-6.87-5.318c-.073-.052-.124-.14-.124-.242 0-.103.05-.19.125-.242l6.87-5.317c.088-.065.227-.08.33-.028.11.05.175.153.175.278v2.812c4.687 0 7.346 2.652 7.5 6.893 0 .14-.103.256-.242.292h-.073c-.102 0-.168-.05-.278-.153z" fill="#808A92"/><path d="M157 120c-3.876 0-7 3.124-7 7s3.124 7 7 7 7-3.124 7-7-3.124-7-7-7zm.875 11.375h-1.75v-4.956h1.75v4.955zm-.875-6.42c-.65 0-1.17-.518-1.17-1.16 0-.65.52-1.17 1.17-1.17.65 0 1.17.52 1.17 1.17 0 .642-.52 1.16-1.17 1.16z" fill="#6A1E26"/><path d="M177 120c-3.876 0-7 3.124-7 7s3.124 7 7 7 7-3.124 7-7-3.124-7-7-7zm.875 11.375h-1.75v-4.956h1.75v4.955zm-.875-6.42c-.65 0-1.17-.518-1.17-1.16 0-.65.52-1.17 1.17-1.17.65 0 1.17.52 1.17 1.17 0 .642-.52 1.16-1.17 1.16zM197 128.125l7-5.25c0-.485-.39-.875-.875-.875h-12.25c-.485 0-.875.39-.875.875l7 5.25zm0 1.572l-7-5.25v7.178c0 .485.39.875.875.875h12.25c.485 0 .875-.39.875-.875v-7.178l-7 5.25z" fill="#928D8E"/><path d="M26.4 133.6v-4.8h3.2v4.8h4v-6.4H36l-8-7.2-8 7.2h2.4v6.4h4z" fill="#FFF"/><path d="M46.4 133.6v-4.8h3.2v4.8h4v-6.4H56l-8-7.2-8 7.2h2.4v6.4h4z" fill="#494142"/></g></svg>