<?xml version="1.0" standalone="no"?>
<!DOCTYPE svg PUBLIC "-//W3C//DTD SVG 20010904//EN"
 "http://www.w3.org/TR/2001/REC-SVG-20010904/DTD/svg10.dtd">
<svg version="1.0" xmlns="http://www.w3.org/2000/svg"
 width="500.000000pt" height="500.000000pt" viewBox="0 0 500.000000 500.000000"
 preserveAspectRatio="xMidYMid meet">
<metadata>
Created by potrace 1.11, written by Peter Selinger 2001-2013
</metadata>
<g transform="translate(0.000000,500.000000) scale(0.100000,-0.100000)"
fill="#000000" stroke="none">
<path d="M10 3556 l0 -1445 131 62 c154 72 210 117 233 185 33 96 56 857 56
1875 l0 767 -210 0 -210 0 0 -1444z"/>
<path d="M1056 4863 c8 -188 18 -239 58 -279 18 -18 50 -37 72 -43 84 -22 281
-33 504 -28 385 9 529 54 685 211 74 73 148 185 169 254 l7 22 -750 0 -751 0
6 -137z"/>
<path d="M3197 4953 c-94 -128 -242 -241 -477 -363 -197 -102 -197 -115 -4
-165 209 -55 365 -125 523 -236 88 -61 213 -179 271 -254 33 -43 50 -56 79
-61 221 -37 474 -115 650 -199 355 -171 563 -362 706 -647 l55 -110 0 1041 0
1041 -884 0 -884 0 -35 -47z"/>
<path d="M1377 4239 c-95 -10 -191 -34 -231 -57 -34 -20 -61 -68 -77 -137 -16
-72 -23 -950 -10 -1242 12 -261 26 -348 68 -425 35 -65 151 -170 228 -209 78
-38 148 -49 323 -49 l142 0 0 363 c0 518 -21 836 -65 984 -21 72 -68 131 -122
155 -36 16 -82 22 -227 30 -99 5 -187 11 -193 13 -19 6 -16 67 8 129 37 100
14 95 329 80 289 -13 1005 -17 1149 -6 l84 7 -82 77 c-186 175 -372 257 -653
287 -112 13 -555 12 -671 0z"/>
<path d="M2740 3666 c-142 -32 -259 -94 -305 -164 -25 -39 -26 -44 -35 -293
-17 -489 -23 -899 -13 -899 18 0 173 98 238 151 242 196 362 518 327 877 -10
105 -38 229 -71 315 -9 23 -16 27 -48 26 -21 -1 -63 -7 -93 -13z"/>
<path d="M3640 3483 c0 -5 7 -42 17 -83 23 -107 23 -348 -1 -459 -49 -229
-160 -419 -345 -593 -118 -111 -240 -192 -416 -278 -187 -91 -281 -125 -487
-174 l-28 -6 0 -298 c0 -251 2 -301 15 -319 17 -24 122 -62 235 -84 82 -17
370 -16 505 0 165 20 295 50 385 88 358 153 616 452 715 828 22 83 28 130 32
276 8 244 -12 371 -84 554 -90 227 -245 403 -451 513 -82 43 -92 47 -92 35z"/>
<path d="M4980 2188 c-19 -78 -110 -252 -181 -348 -98 -133 -314 -342 -443
-428 -313 -208 -726 -336 -1231 -382 -60 -5 -240 -10 -398 -10 -175 0 -296 -4
-307 -10 -31 -17 -40 -75 -40 -255 0 -209 24 -589 46 -722 l5 -33 1284 0 1285
0 0 1120 c0 616 -1 1120 -3 1120 -2 0 -9 -23 -17 -52z m-1532 -1440 c46 -14
99 -62 112 -104 16 -46 4 -92 -32 -131 l-30 -31 40 -37 c64 -57 68 -134 11
-200 -85 -97 -319 -94 -403 6 -52 61 -40 151 27 204 l35 28 -29 24 c-36 30
-52 87 -39 133 29 102 168 151 308 108z m549 7 c115 -34 170 -134 161 -295 -9
-150 -72 -243 -187 -277 -67 -19 -151 -13 -212 15 -76 35 -76 34 -39 86 19 25
36 46 40 46 3 0 23 -9 45 -20 53 -27 124 -27 160 2 25 20 61 85 52 94 -2 2
-20 -3 -40 -11 -99 -41 -239 0 -281 84 -85 169 97 337 301 276z m-1007 -285
l0 -290 -65 0 -65 0 0 226 0 227 -29 -6 c-16 -3 -40 -9 -54 -12 -22 -6 -26 -2
-35 27 -23 71 -24 69 63 94 44 12 104 23 133 23 l52 1 0 -290z m1710 238 c0
-49 -9 -68 -136 -290 l-137 -238 -74 0 c-56 0 -74 3 -70 13 2 6 63 111 135
232 l130 220 -144 3 -144 3 0 54 0 55 220 0 220 0 0 -52z"/>
<path d="M3280 652 c-27 -22 -29 -65 -5 -92 25 -28 107 -28 135 0 65 65 -57
151 -130 92z"/>
<path d="M3302 405 c-34 -15 -52 -47 -44 -77 8 -32 43 -48 105 -48 48 0 62 4
82 25 14 13 25 29 25 35 0 25 -23 52 -55 66 -43 17 -71 17 -113 -1z"/>
<path d="M3853 640 c-44 -18 -58 -90 -25 -130 14 -18 32 -24 75 -28 52 -4 58
-2 87 26 39 39 39 74 1 113 -24 23 -38 29 -73 28 -24 0 -53 -4 -65 -9z"/>
<path d="M515 1884 c-102 -4 -361 -21 -448 -30 l-57 -7 0 -923 0 -924 894 0
894 0 6 48 c11 85 26 816 26 1315 0 381 -3 489 -12 492 -27 8 -1158 33 -1303
29z"/>
</g>
</svg>
