<svg xmlns="http://www.w3.org/2000/svg" viewBox="0 0 63.653 63.633"><title>social_links_linkedin</title><path d="M503.259,274.887H446.89a3.644,3.644,0,0,0-3.64,3.635v56.358a3.645,3.645,0,0,0,3.64,3.64h56.368a3.649,3.649,0,0,0,3.645-3.64V278.523A3.648,3.648,0,0,0,503.259,274.887Zm-45.026,20.931h-0.059a4.822,4.822,0,0,1-5.148-4.848c0-2.751,2.082-4.844,5.271-4.844a4.839,4.839,0,0,1,5.207,4.844C463.5,293.662,461.485,295.818,458.233,295.818Zm4.667,3.827V327.67h-9.319V299.645H462.9Zm33.6,28.025h-9.323V312.677c0-3.768-1.351-6.332-4.721-6.332a5.08,5.08,0,0,0-4.779,3.409,6.222,6.222,0,0,0-.3,2.265V327.67h-9.323s0.113-25.392,0-28.025h9.323v3.988a9.213,9.213,0,0,1,8.4-4.647c6.135,0,10.733,4.009,10.733,12.615V327.67Z" transform="translate(-443.251 -274.887)" style="fill:#c7d5d4"/></svg>