<svg xmlns="http://www.w3.org/2000/svg" viewBox="0 0 63.653 63.653"><title>social_links_youtube</title><path d="M393.686,313.61a2.345,2.345,0,0,0-1.184.334,4.188,4.188,0,0,0-1.1.958v-6.037h-2.6v18.76h2.6v-1.061a3.536,3.536,0,0,0,1.091.934,3.038,3.038,0,0,0,1.351.3,2.1,2.1,0,0,0,1.749-.786,3.635,3.635,0,0,0,.6-2.255v-7.683a4.387,4.387,0,0,0-.638-2.579A2.162,2.162,0,0,0,393.686,313.61Zm-0.133,10.763a1.518,1.518,0,0,1-.231.948,0.781,0.781,0,0,1-.693.3,1.449,1.449,0,0,1-.629-0.147,2.162,2.162,0,0,1-.6-0.486v-8.626a1.827,1.827,0,0,1,.531-0.418,1.261,1.261,0,0,1,.545-0.137,0.945,0.945,0,0,1,.8.363,1.708,1.708,0,0,1,.28,1.051v7.152Z" transform="translate(-354.928 -274.873)" style="fill:#c7d5d4"/><path d="M386.578,298.628a1.129,1.129,0,0,0,.83-0.314,1.213,1.213,0,0,0,.31-0.879v-7.545a0.929,0.929,0,0,0-.324-0.727,1.143,1.143,0,0,0-.815-0.28,1.037,1.037,0,0,0-.766.28,0.958,0.958,0,0,0-.3.727v7.545a1.289,1.289,0,0,0,.275.879A1.025,1.025,0,0,0,386.578,298.628Z" transform="translate(-354.928 -274.873)" style="fill:#c7d5d4"/><path d="M383.714,324.29a3.787,3.787,0,0,1-.8.746,1.365,1.365,0,0,1-.717.285,0.6,0.6,0,0,1-.521-0.216,1.164,1.164,0,0,1-.172-0.722v-10.6h-2.569v11.563a3.155,3.155,0,0,0,.452,1.857,1.575,1.575,0,0,0,1.346.614,2.975,2.975,0,0,0,1.493-.442,5.369,5.369,0,0,0,1.484-1.287v1.533h2.569V313.787h-2.569v10.5Z" transform="translate(-354.928 -274.873)" style="fill:#c7d5d4"/><path d="M414.946,274.873H358.568a3.656,3.656,0,0,0-3.64,3.635v56.378a3.648,3.648,0,0,0,3.64,3.64h56.378a3.644,3.644,0,0,0,3.635-3.64V278.507A3.652,3.652,0,0,0,414.946,274.873Zm-22.42,11.956H395.1V297.45a1.306,1.306,0,0,0,.167.717,0.614,0.614,0,0,0,.521.211,1.349,1.349,0,0,0,.722-0.295,4,4,0,0,0,.8-0.741V286.829h2.589v13.853H397.3v-1.533a5.769,5.769,0,0,1-1.483,1.287,3,3,0,0,1-1.494.437,1.579,1.579,0,0,1-1.351-.609,3.176,3.176,0,0,1-.447-1.857V286.829Zm-5.831-.354a3.581,3.581,0,0,1,2.623,1.012,3.458,3.458,0,0,1,1.027,2.589v7.152a3.793,3.793,0,0,1-1.007,2.785,3.729,3.729,0,0,1-2.75,1.012h-0.015a3.6,3.6,0,0,1-2.692-1.041,3.852,3.852,0,0,1-1.007-2.805L382.859,290a3.321,3.321,0,0,1,1.051-2.564A3.925,3.925,0,0,1,386.7,286.475Zm-10.5-4.568,1.872,7.511h0.187l1.8-7.511H383l-3.38,10.984v7.791h-2.9v-7.437l-3.448-11.337H376.2Zm32.755,44.55a6.1,6.1,0,0,1-6.125,6.052q-7.265.3-14.815,0.285-7.568.022-14.816-.285a6.085,6.085,0,0,1-6.121-6.052c-0.206-2.653-.29-5.3-0.29-7.953,0-2.628.084-5.286,0.29-7.929a6.1,6.1,0,0,1,6.121-6.066q6.89-.273,14.064-0.28h1.493q7.169,0,14.074.28a6.108,6.108,0,0,1,6.125,6.066c0.2,2.643.285,5.3,0.285,7.929C409.238,321.156,409.15,323.8,408.953,326.456Z" transform="translate(-354.928 -274.873)" style="fill:#c7d5d4"/><path d="M402.057,313.434a3.783,3.783,0,0,0-2.825,1.13,4.067,4.067,0,0,0-1.095,2.928v6.229a4.613,4.613,0,0,0,1,3.139A3.458,3.458,0,0,0,401.87,328a3.677,3.677,0,0,0,2.884-1.071,4.673,4.673,0,0,0,.972-3.208v-1.051h-2.647v0.968a3.222,3.222,0,0,1-.251,1.582,1.054,1.054,0,0,1-.9.354,0.924,0.924,0,0,1-.87-0.423,3.123,3.123,0,0,1-.26-1.513v-2.613h4.927v-3.532a4.293,4.293,0,0,0-.958-3A3.43,3.43,0,0,0,402.057,313.434Zm1.022,5.443H400.8v-1.4a2.221,2.221,0,0,1,.27-1.247,1.01,1.01,0,0,1,.889-0.369,0.95,0.95,0,0,1,.845.369,2.14,2.14,0,0,1,.275,1.247v1.4Z" transform="translate(-354.928 -274.873)" style="fill:#c7d5d4"/><polygon points="24.041 33.993 15.149 33.993 15.149 36.714 18.146 36.714 18.146 52.753 21.039 52.753 21.039 36.714 24.041 36.714 24.041 33.993" style="fill:#c7d5d4"/></svg>