<svg xmlns="http://www.w3.org/2000/svg" viewBox="0 0 63.653 63.653"><title>social_links_twitter</title><path d="M326.628,274.873H270.25a3.661,3.661,0,0,0-3.645,3.635v56.378a3.653,3.653,0,0,0,3.645,3.64h56.378a3.64,3.64,0,0,0,3.63-3.64V278.507A3.648,3.648,0,0,0,326.628,274.873Zm-8.282,32.2c-4.509,18.318-34.8,26.079-48.725,7.079a14.643,14.643,0,0,0,20.514-.555c-3.449.516-5.969-2.883-1.715-4.725a6.406,6.406,0,0,1-6.818-3.335,5.042,5.042,0,0,1,3.787-1.5c-4.176-.982-5.718-3.031-6.19-5.512a11.465,11.465,0,0,1,3.4-.412c-3.655-1.911-4.932-4.794-4.725-6.956a108.568,108.568,0,0,1,14.191,6.248,21.274,21.274,0,0,1,4.19,3.365c1.99-5.256,4.456-10.684,8.66-13.381a2.9,2.9,0,0,1-.835,1.645,8.242,8.242,0,0,1,4.343-2.043c-0.192,1.179-1.9,1.852-2.933,2.24,0.781-.251,4.927-2.1,5.379-1.041,0.536,1.189-2.859,1.743-3.429,1.96-0.442.147-.865,0.3-1.287,0.472,5.251-.531,10.247,3.812,11.716,9.186,0.108,0.4.221,0.825,0.3,1.277,1.921,0.722,5.413-.034,6.533-0.727-0.815,1.921-2.918,3.335-6.032,3.6a13.54,13.54,0,0,0,6.268.639A8.43,8.43,0,0,1,318.346,307.072Z" transform="translate(-266.606 -274.873)" style="fill:#c7d5d4"/></svg>