<svg xmlns="http://www.w3.org/2000/svg" viewBox="0 0 63.668 63.653"><title>social_links_facebook</title><path d="M238.311,274.873H181.923a3.66,3.66,0,0,0-3.64,3.635v56.378a3.652,3.652,0,0,0,3.64,3.64h56.388a3.645,3.645,0,0,0,3.64-3.64V278.507A3.653,3.653,0,0,0,238.311,274.873Zm-5.988,35.717h-8.749v23.4h-8.911v-23.4h-6.189v-8.42h6.189v-7.2c0-5.659,3.655-10.851,12.079-10.851a51.565,51.565,0,0,1,5.929.324l-0.187,7.87s-2.574-.025-5.379-0.025c-3.046,0-3.532,1.4-3.532,3.718v6.165h9.137Z" transform="translate(-178.283 -274.873)" style="fill:#c7d5d4"/></svg>